<?xml version="1.0" encoding="utf-8"?>
<!-- Generator: Adobe Illustrator 27.5.0, SVG Export Plug-In . SVG Version: 6.00 Build 0)  -->
<svg version="1.1" xmlns="http://www.w3.org/2000/svg" xmlns:xlink="http://www.w3.org/1999/xlink" x="0px" y="0px"
	 viewBox="0 0 500 500" style="enable-background:new 0 0 500 500;" xml:space="preserve">
<g id="Background_Simple">
	<g>
		<path style="fill:#C6FF00;" d="M165.186,75.753c0,0-75.766,38.605-113.558,98.099c-37.792,59.494-34.8,135.954,11.123,192.782
			c45.923,56.827,133.693,49.339,207.177,85.319c73.484,35.979,154.576,28.577,189.321-47.661
			c34.745-76.238-17.645-104.716-26.652-192.935C423.59,123.136,344.067-6.048,165.186,75.753z"/>
		<path style="opacity:0.7;fill:#FFFFFF;" d="M165.186,75.753c0,0-75.766,38.605-113.558,98.099
			c-37.792,59.494-34.8,135.954,11.123,192.782c45.923,56.827,133.693,49.339,207.177,85.319
			c73.484,35.979,154.576,28.577,189.321-47.661c34.745-76.238-17.645-104.716-26.652-192.935
			C423.59,123.136,344.067-6.048,165.186,75.753z"/>
	</g>
</g>
<g id="Icons">
	<g>
		<path style="fill:#263238;" d="M467.198,273.496h-4.146v-0.702c0-4.034-3.282-7.316-7.316-7.316h-2.808
			c-4.034,0-7.316,3.282-7.316,7.316v0.702h-4.147c-2.326,0-4.211,1.885-4.211,4.211v19.182c0,2.326,1.885,4.211,4.211,4.211h25.732
			c2.326,0,4.211-1.885,4.211-4.211v-19.182C471.409,275.381,469.524,273.496,467.198,273.496z M447.612,272.795
			c0-2.932,2.385-5.316,5.316-5.316h2.808c2.932,0,5.316,2.385,5.316,5.316v0.702h-13.44V272.795z"/>
		<polygon style="fill:#FFFFFF;" points="462,285.341 456.705,285.341 456.705,280.046 451.958,280.046 451.958,285.341 
			446.664,285.341 446.664,290.088 451.958,290.088 451.958,295.382 456.705,295.382 456.705,290.088 462,290.088 		"/>
	</g>
	<g>
		<g>
			<path style="fill:#FFFFFF;stroke:#263238;stroke-linecap:round;stroke-linejoin:round;stroke-miterlimit:10;" d="M459,159.195
				L459,159.195c-3.466,0-6.275-2.809-6.275-6.275v-16.894c0-3.465,2.809-6.275,6.275-6.275l0,0c3.465,0,6.275,2.809,6.275,6.275
				v16.894C465.275,156.386,462.465,159.195,459,159.195z"/>
			<path style="fill:#263238;stroke:#263238;stroke-linecap:round;stroke-linejoin:round;stroke-miterlimit:10;" d="M459,159.195
				L459,159.195c-3.466,0-6.275-2.809-6.275-6.275v-8.447h12.55v8.447C465.275,156.386,462.465,159.195,459,159.195z"/>
		</g>
		<g>
			<path style="fill:#FFFFFF;stroke:#263238;stroke-linecap:round;stroke-linejoin:round;stroke-miterlimit:10;" d="M427.46,134.277
				L427.46,134.277c-2.169-2.703-1.736-6.652,0.967-8.821l13.177-10.572c2.703-2.169,6.652-1.736,8.821,0.967l0,0
				c2.169,2.703,1.736,6.652-0.967,8.821l-13.177,10.572C433.578,137.413,429.629,136.98,427.46,134.277z"/>
			<path style="fill:#263238;stroke:#263238;stroke-linecap:round;stroke-linejoin:round;stroke-miterlimit:10;" d="M427.46,134.277
				L427.46,134.277c-2.169-2.703-1.736-6.652,0.967-8.821l6.588-5.286l7.854,9.789l-6.588,5.286
				C433.578,137.413,429.629,136.98,427.46,134.277z"/>
		</g>
	</g>
	<path style="fill:#263238;" d="M364.751,88.241c-0.813,0-1.561,0.262-2.177,0.698l-14.541-11.31
		c0.621-1.153,0.974-2.472,0.974-3.873c0-1.717-0.53-3.309-1.434-4.625l8.892-11.381c0.423,0.164,0.878,0.262,1.358,0.262
		c2.087,0,3.779-1.692,3.779-3.779s-1.692-3.779-3.779-3.779c-2.087,0-3.779,1.692-3.779,3.779c0,0.81,0.26,1.556,0.693,2.171
		l-8.658,11.082c-1.423-1.195-3.257-1.917-5.26-1.917c-4.365,0-7.921,3.418-8.164,7.722H322.51
		c-0.231-1.865-1.804-3.314-3.732-3.314c-2.087,0-3.779,1.692-3.779,3.779c0,2.087,1.692,3.779,3.779,3.779
		c1.462,0,2.716-0.839,3.344-2.054h10.696c0.792,3.693,4.072,6.463,8.001,6.463c2.332,0,4.431-0.98,5.922-2.544l14.49,11.27
		c-0.161,0.421-0.259,0.873-0.259,1.35c0,2.087,1.692,3.779,3.779,3.779c2.087,0,3.779-1.692,3.779-3.779
		C368.53,89.933,366.838,88.241,364.751,88.241z"/>
	<g>
		<g>
			<path style="fill:#FFFFFF;stroke:#263238;stroke-linecap:round;stroke-linejoin:round;stroke-miterlimit:10;" d="M68.784,159.319
				L68.784,159.319c-2.523,0-4.569-2.046-4.569-4.569v-38.027h9.138v38.027C73.353,157.273,71.307,159.319,68.784,159.319z"/>
			<path style="fill:#263238;stroke:#263238;stroke-linecap:round;stroke-linejoin:round;stroke-miterlimit:10;" d="M68.784,159.319
				L68.784,159.319c-2.523,0-4.569-2.046-4.569-4.569v-23.368h9.138v23.368C73.353,157.273,71.307,159.319,68.784,159.319z"/>
			
				<rect x="62.908" y="114.531" style="fill:#FFFFFF;stroke:#263238;stroke-linecap:round;stroke-linejoin:round;stroke-miterlimit:10;" width="11.751" height="3.326"/>
		</g>
		<g>
			<path style="fill:#FFFFFF;stroke:#263238;stroke-linecap:round;stroke-linejoin:round;stroke-miterlimit:10;" d="M54.933,159.319
				L54.933,159.319c-2.523,0-4.569-2.046-4.569-4.569v-38.027h9.138v38.027C59.502,157.273,57.456,159.319,54.933,159.319z"/>
			<path style="fill:#263238;stroke:#263238;stroke-linecap:round;stroke-linejoin:round;stroke-miterlimit:10;" d="M54.933,159.319
				L54.933,159.319c-2.523,0-4.569-2.046-4.569-4.569v-23.368h9.138v23.368C59.502,157.273,57.456,159.319,54.933,159.319z"/>
			
				<rect x="49.057" y="114.531" style="fill:#FFFFFF;stroke:#263238;stroke-linecap:round;stroke-linejoin:round;stroke-miterlimit:10;" width="11.751" height="3.326"/>
		</g>
	</g>
	<g>
		<path style="fill:#263238;" d="M186.777,77.068l3.642-8.74c0.122-0.292,0.419-0.469,0.73-0.461
			c0.315,0.016,0.588,0.229,0.68,0.532l4.407,14.542l3.361-10.716c0.097-0.309,0.381-0.521,0.704-0.525
			c0.32,0.025,0.614,0.198,0.72,0.503l1.87,5.375h10.071c1.927-2.272,3.373-4.819,3.373-8.036c0-6.259-5.074-11.333-11.333-11.333
			c-5.365,0-9.848,3.732-11.023,8.738c-1.175-5.006-5.658-8.738-11.023-8.738c-6.259,0-11.333,5.074-11.333,11.333
			c0,2.784,1.211,5.263,2.942,7.525H186.777z"/>
		<path style="fill:#263238;" d="M202.358,79.08c-0.319,0-0.604-0.202-0.708-0.503l-1.3-3.737l-3.411,10.872
			c-0.099,0.313-0.389,0.525-0.716,0.525c-0.001,0-0.002,0-0.004,0c-0.329-0.002-0.618-0.218-0.714-0.533L191,70.835l-3.03,7.272
			c-0.116,0.279-0.39,0.461-0.692,0.461h-11.473c2.467,2.762,5.543,5.198,7.846,7.474c3.478,3.437,6.889,6.961,10.442,10.32
			c4.548-4.495,9.124-8.961,13.638-13.491c1.249-1.253,2.605-2.49,3.867-3.793H202.358z"/>
	</g>
	<g>
		
			<rect x="36.198" y="287.702" transform="matrix(-0.9448 -0.3278 0.3278 -0.9448 -21.507 587.9692)" style="fill:#FFFFFF;stroke:#263238;stroke-miterlimit:10;" width="5.193" height="16.191"/>
		
			<rect x="31.634" y="303.361" transform="matrix(-0.9448 -0.3278 0.3278 -0.9448 -30.622 604.6152)" style="fill:#FFFFFF;stroke:#263238;stroke-miterlimit:10;" width="8.013" height="3.055"/>
		
			<rect x="38.037" y="264.827" transform="matrix(-0.9448 -0.3278 0.3278 -0.9448 -5.161 558.1115)" style="fill:#FFFFFF;stroke:#263238;stroke-miterlimit:10;" width="12.83" height="29.326"/>
		
			<rect x="41.87" y="265.19" transform="matrix(-0.9448 -0.3278 0.3278 -0.9448 1.0588 546.7496)" style="fill:#263238;stroke:#263238;stroke-miterlimit:10;" width="9.47" height="16.191"/>
		
			<rect x="40.403" y="275.58" transform="matrix(-0.9448 -0.3278 0.3278 -0.9448 -9.3555 565.7742)" style="fill:#263238;stroke:#263238;stroke-miterlimit:10;" width="5.193" height="16.191"/>
		
			<rect x="32.915" y="289.779" transform="matrix(-0.9448 -0.3278 0.3278 -0.9448 -17.3115 580.3068)" style="fill:#FFFFFF;stroke:#263238;stroke-miterlimit:10;" width="14.663" height="3.666"/>
		
			<rect x="46.741" y="259.442" transform="matrix(-0.9448 -0.3278 0.3278 -0.9448 12.4884 525.8761)" style="fill:#FFFFFF;stroke:#263238;stroke-miterlimit:10;" width="7.637" height="4.888"/>
		
			<rect x="42.227" y="262.939" transform="matrix(-0.9448 -0.3278 0.3278 -0.9448 9.596 531.1607)" style="fill:#FFFFFF;stroke:#263238;stroke-miterlimit:10;" width="14.663" height="3.666"/>
		<line style="fill:none;stroke:#263238;stroke-miterlimit:10;" x1="51.417" y1="258.949" x2="57.224" y2="242.21"/>
	</g>
</g>
<g id="Character_3">
	<g>
		
			<ellipse style="fill:#263238;stroke:#263238;stroke-linecap:round;stroke-linejoin:round;stroke-miterlimit:10;" cx="373.902" cy="455.197" rx="52.328" ry="11.803"/>
		<g>
			<path style="fill:#FFFFFF;stroke:#263238;stroke-linecap:round;stroke-linejoin:round;stroke-miterlimit:10;" d="
				M333.546,188.477c0,0-7.077,4.337-6.976,6.232c0.102,1.895-2.64,36.552-2.949,40.884c-0.309,4.332-4.432,13.269-4.755,17.331
				c-0.323,4.061,0.707,8.122,1.892,10.016c1.185,1.894,5.566,7.848,5.566,7.848l11.751-18.148c0,0,0.367-3.249,0.173-11.913
				C338.053,232.064,333.546,188.477,333.546,188.477z"/>
			<path style="fill:#263238;stroke:#263238;stroke-linecap:round;stroke-linejoin:round;stroke-miterlimit:10;" d="
				M378.755,102.621c0,0-12.498-0.804-19.613,7.865c-7.116,8.669-5.591,21.934-5.644,25.995s-12.138,15.982-10.793,20.855
				c1.345,4.872,4.893,5.412,3.758,9.473c-1.136,4.062-8.586,6.504-7.497,11.647c1.088,5.143,5,12.451,5,12.451l72.047,0.493
				c0,0,2.571-7.583-0.171-13.266c-2.742-5.684-6.634-7.576-5.967-10.284c0.667-2.708,4.108-9.208,2.764-14.081
				c-1.345-4.872-6.02-6.223-6.485-14.887c-0.465-8.663-1.777-23.012-8.653-30.047C390.624,101.801,378.755,102.621,378.755,102.621
				z"/>
			<g>
				<path style="fill:#FFFFFF;stroke:#263238;stroke-linecap:round;stroke-linejoin:round;stroke-miterlimit:10;" d="
					M356.622,436.734c0,0-3.427,6.771-8.024,11.918c-4.597,5.147-9.054,7.858-8.909,10.565c0.145,2.707,10.192,3.242,15.505,1.343
					c5.313-1.899,9.171-5.692,10.239-5.963c1.069-0.271,4.061-0.003,4.128-3.793c0.067-3.79-0.514-14.62-0.514-14.62
					L356.622,436.734z"/>
				<path style="fill:#FFFFFF;stroke:#263238;stroke-linecap:round;stroke-linejoin:round;stroke-miterlimit:10;" d="
					M355.194,460.561c5.313-1.899,9.171-5.692,10.239-5.963c1.069-0.271,4.061-0.003,4.128-3.793
					c0.036-2.004-0.11-5.976-0.256-9.275c-2.992,5.183-8.099,4.949-8.099,4.949s-0.102-1.895-2.984-5.142
					c-1.874-2.111-3.768-0.447-4.868,0.976c-0.283,0.436-0.576,0.879-0.887,1.335c-0.042,0.075-0.071,0.13-0.071,0.13l-0.02,0.001
					c-1.113,1.619-2.391,3.32-3.779,4.875c-4.597,5.147-9.054,7.858-8.909,10.565C339.835,461.924,349.881,462.459,355.194,460.561z
					"/>
			</g>
			<g>
				<path style="fill:#FFFFFF;stroke:#263238;stroke-linecap:round;stroke-linejoin:round;stroke-miterlimit:10;" d="
					M393.668,436.709c0,0,4.154,6.766,9.303,11.906c5.149,5.141,9.897,7.845,10.043,10.552c0.145,2.707-9.843,3.255-15.36,1.364
					c-5.517-1.892-9.781-5.679-10.879-5.949c-1.097-0.27-4.061,0.003-4.535-3.787c-0.474-3.79-1.056-14.619-1.056-14.619
					L393.668,436.709z"/>
				<path style="fill:#FFFFFF;stroke:#263238;stroke-linecap:round;stroke-linejoin:round;stroke-miterlimit:10;" d="
					M397.654,460.532c-5.517-1.892-9.781-5.679-10.879-5.949c-1.097-0.27-4.061,0.003-4.535-3.787
					c-0.251-2.004-0.531-5.976-0.74-9.275c3.549,5.179,8.63,4.937,8.63,4.937s-0.102-1.895,2.431-5.146
					c1.647-2.113,3.719-0.453,4.972,0.97c0.329,0.435,0.67,0.879,1.03,1.333c0.05,0.075,0.085,0.13,0.085,0.13l0.02,0.001
					c1.286,1.618,2.748,3.317,4.303,4.869c5.149,5.141,9.897,7.845,10.043,10.552C413.159,461.875,403.171,462.424,397.654,460.532z
					"/>
			</g>
			<g>
				<path style="fill:#C6FF00;stroke:#263238;stroke-linecap:round;stroke-linejoin:round;stroke-miterlimit:10;" d="
					M334.869,293.796c0,0,1.67,56.314,3.89,67.413c2.22,11.099,12.134,74.717,12.134,74.717s3.892,1.893,9.578,1.889
					c5.685-0.004,10.83-0.007,10.83-0.007l0.976-47.381l0.369-68.769l5.438,116.416c0,0,14.92,0.532,16.53,0.26
					c1.61-0.272,2.949-0.543,2.949-0.543l9.583-73.649l5.491-49.008l0.307-19.494c0,0-45.843-1.594-59.167-2.668
					c-13.324-1.074-18.754-1.341-18.754-1.341L334.869,293.796z"/>
				<path style="fill:none;stroke:#263238;stroke-linecap:round;stroke-linejoin:round;stroke-miterlimit:10;" d="M396.767,393.224
					c-0.116,0.939-0.241,1.81-0.374,2.602"/>
				<path style="fill:none;stroke:#263238;stroke-linecap:round;stroke-linejoin:round;stroke-miterlimit:10;" d="M398.028,325.431
					c0,0,0.932,40.119-0.696,61.896"/>
				<path style="fill:none;stroke:#263238;stroke-linecap:round;stroke-linejoin:round;stroke-miterlimit:10;" d="M348.849,322.215
					c0,0,1.154,26.532,2.286,32.488"/>
				<path style="fill:#263238;stroke:#263238;stroke-linecap:round;stroke-linejoin:round;stroke-miterlimit:10;" d="
					M391.575,305.297v20.26c0,0,3.833,1.095,7.94,1.369c4.107,0.274,11.773,0,11.773,0l0.548-7.666L391.575,305.297z"/>
				<path style="fill:#263238;stroke:#263238;stroke-linecap:round;stroke-linejoin:round;stroke-miterlimit:10;" d="
					M335.722,320.903c0,0,10.404,3.285,14.785,3.559c4.381,0.274,8.487,0.821,8.487,0.821l-0.547-5.476l-23.272-2.19
					L335.722,320.903z"/>
			</g>
			<path style="fill:#C6FF00;stroke:#263238;stroke-linecap:round;stroke-linejoin:round;stroke-miterlimit:10;" d="
				M367.324,167.066l-8.17,9.211l-22.668,16.531l4.837,100.172c0,0,18.053,4.862,33.558,6.206
				c15.505,1.343,35.428-2.191,35.428-2.191l-2.932-105.047c0,0-8.82-12.99-13.341-16.507c-4.521-3.517-6.59-6.764-12.576-7.302
				C375.475,167.602,367.324,167.066,367.324,167.066z"/>
			<g>
				<path style="fill:#FFFFFF;stroke:#263238;stroke-linecap:round;stroke-linejoin:round;stroke-miterlimit:10;" d="
					M357.839,171.946l-24.292,16.532l3.812,60.915l-1.291,6.113l-10.203,11.764l4.346,20.66l-1.942,29.155
					c0,0,9.65,3.242,16.192,4.05c6.541,0.808,14.664,0.802,14.664,0.802l0.841-39.8c0,0,3.222-66.064,3.603-69.042
					c0.382-2.979,3.756-46.029,3.756-46.029L357.839,171.946z"/>
				<polyline style="fill:none;stroke:#263238;stroke-linecap:round;stroke-linejoin:round;stroke-miterlimit:10;" points="
					358.229,174.492 346.468,203.98 359.164,209.247 347.178,211.427 357.789,253.003 				"/>
			</g>
			<path style="fill:#FFFFFF;stroke:#263238;stroke-linecap:round;stroke-linejoin:round;stroke-miterlimit:10;" d="
				M365.278,159.216c0,0,4.219,28.154,7.546,34.65c3.327,6.496,4.255,8.661,4.255,8.661s7.216-21.935,8.666-25.185
				c1.45-3.25,2.991-14.893,2.991-14.893S374.363,167.061,365.278,159.216z"/>
			<path style="fill:#263238;stroke:#263238;stroke-linecap:round;stroke-linejoin:round;stroke-miterlimit:10;" d="
				M365.278,159.216c0,0,0.385,2.564,1.011,6.313c2.109,1.613,7.704,5.592,11.831,5.799c3.148,0.157,7.148-1.882,9.809-3.509
				c0.487-2.944,0.808-5.369,0.808-5.369S374.363,167.061,365.278,159.216z"/>
			<g>
				<path style="fill:#FFFFFF;stroke:#263238;stroke-linecap:round;stroke-linejoin:round;stroke-miterlimit:10;" d="
					M359.554,139.764c0,0-2.88-4.103-4.828,0.009c-1.948,4.112,3.013,10.168,4.386,10.985c3.921,2.334,2.876-1.971,2.876-1.971
					L359.554,139.764z"/>
				<path style="fill:#FFFFFF;stroke:#263238;stroke-linecap:round;stroke-linejoin:round;stroke-miterlimit:10;" d="
					M395.317,141.531c0,0,2.431-4.243,4.815-0.245c2.384,3.999-1.912,10.297-3.194,11.185c-3.659,2.533-3.08-1.814-3.08-1.814
					L395.317,141.531z"/>
				<g>
					<path style="fill:#FFFFFF;stroke:#263238;stroke-linecap:round;stroke-linejoin:round;stroke-miterlimit:10;" d="
						M358.869,136.144c0,0,10.443-2.44,15.698-5.557c5.255-3.116,8.271-7.528,8.271-7.528s4.526,8.545,8.506,11.96
						c3.979,3.415,4.806,3.664,4.806,3.664s-1.908,14.941-4.068,20.142s-9.209,10.26-15.794,8.808
						c-3.736-0.823-10.221-3.522-12.092-8.075C362.323,155.006,358.869,136.144,358.869,136.144z"/>
					<path style="fill:#C6FF00;stroke:#263238;stroke-linecap:round;stroke-linejoin:round;stroke-miterlimit:10;" d="
						M385.514,147.628c-3.249,0.085-14.093,0.1-19.697-3.273c-3.089-1.859-5.085-3.493-6.264-4.591
						c0.201,1.04,0.437,2.246,0.698,3.548l1.219,0.887l3.062,11.562l-1.428,0.308c0.393,1.477,0.766,2.702,1.09,3.491
						c1.872,4.553,8.356,7.252,12.092,8.075c6.572,1.448,13.603-3.587,15.779-8.776c-0.415-0.83-0.693-1.925-0.43-3.269
						c0.638-3.266,1.415-8.972,1.415-8.972l2.228-1.966c0.117-0.735,0.224-1.429,0.32-2.07
						C392.904,144.387,387.841,147.566,385.514,147.628z"/>
					<path style="fill:none;stroke:#263238;stroke-linecap:round;stroke-linejoin:round;stroke-miterlimit:10;" d="M373.596,142.797
						c0,0-3.482-4.24-8.07-3.849"/>
					<path style="fill:none;stroke:#263238;stroke-linecap:round;stroke-linejoin:round;stroke-miterlimit:10;" d="M382.589,143.643
						c0,0,3.316-3.878,8.789-2.938"/>
					<path style="fill:none;stroke:#263238;stroke-linecap:round;stroke-linejoin:round;stroke-miterlimit:10;" d="M363.515,136.834
						c0,0,5.042-2.028,9.432-1.06"/>
					<path style="fill:none;stroke:#263238;stroke-linecap:round;stroke-linejoin:round;stroke-miterlimit:10;" d="M383.038,136.863
						c0,0,4.111-2.392,8.195,1.138"/>
					<path style="fill:#263238;" d="M370.236,141.407c0.039,0.725-0.392,1.324-0.962,1.339c-0.57,0.015-1.064-0.56-1.103-1.285
						c-0.039-0.725,0.392-1.324,0.962-1.339C369.703,140.107,370.197,140.682,370.236,141.407z"/>
					<path style="fill:#263238;" d="M388.35,142.714c0.039,0.725-0.392,1.324-0.962,1.339s-1.064-0.56-1.103-1.285
						c-0.039-0.725,0.392-1.324,0.962-1.339S388.311,141.989,388.35,142.714z"/>
				</g>
			</g>
			<path style="fill:#FFFFFF;stroke:#263238;stroke-linecap:round;stroke-linejoin:round;stroke-miterlimit:10;" d="
				M415.276,182.737c0,0,5.831,2.703,7.959,7.034c2.128,4.331,19.519,50.887,19.437,54.406c-0.082,3.52-5.82,7.585-11.206,8.13
				c-5.386,0.545-13.219-9.196-14.389-10.82s-1.375-20.576-1.375-20.576L415.276,182.737z"/>
			<g>
				<path style="fill:#FFFFFF;stroke:#263238;stroke-linecap:round;stroke-linejoin:round;stroke-miterlimit:10;" d="
					M387.804,170.301l2.834,93.134l0.988,58.751c0,0,8.239,2.16,16.632,2.155c8.393-0.006,13.677-2.446,13.677-2.446
					s-1.692-36.549-2.011-42.505c-0.32-5.956-2.284-17.326-2.284-17.326l-2.364-79.326
					C415.276,182.737,393.335,172.464,387.804,170.301z"/>
				<polyline style="fill:#FFFFFF;stroke:#263238;stroke-linecap:round;stroke-linejoin:round;stroke-miterlimit:10;" points="
					394.036,175.441 404.11,208.286 394.933,210.775 403.855,215.113 392.721,250.497 				"/>
			</g>
			<path style="fill:#263238;stroke:#263238;stroke-linecap:round;stroke-linejoin:round;stroke-miterlimit:10;" d="
				M401.065,205.489l-12.491,59.843c0,0,8.538,2.702,14.78,2.968s19.237,0.258,19.237,0.258l12.979-55.782
				C435.571,212.776,409.99,210.357,401.065,205.489z"/>
			<g>
				<path style="fill:#FFFFFF;stroke:#263238;stroke-linecap:round;stroke-linejoin:round;stroke-miterlimit:10;" d="
					M405.413,261.26l0.407-18.697l9.914,2.087C415.734,244.65,409.18,259.085,405.413,261.26z"/>
				<path style="fill:#FFFFFF;stroke:#263238;stroke-linecap:round;stroke-linejoin:round;stroke-miterlimit:10;" d="
					M412.981,235.805c0,0-2.64-3.789-3.496-4.6c-0.856-0.812-5.048-3.246-5.86-3.245c-0.812,0-5.159-0.267-5.971-0.267
					c-0.812,0.001-1.793,1.896-0.938,2.708c0.856,0.812,3.849,1.08,3.849,1.08l2.055,2.977l-9.249-0.806
					c0,0-1.537,1.625-1.194,2.979s0.958,2.707,0.958,2.707s-0.038,4.332,0.32,5.956c0.358,1.624,2.012,2.165,4.25,3.517
					c2.239,1.352,9.776,0.535,9.776,0.535l3.52-0.002L412.981,235.805z"/>
				<path style="fill:#FFFFFF;stroke:#263238;stroke-linecap:round;stroke-linejoin:round;stroke-miterlimit:10;" d="
					M435.554,237.685l-24-3.233c0,0-1.879,15.434-3.769,20.579c-1.89,5.145-2.373,6.229-2.373,6.229s25.15-0.558,31.077-1.104
					c5.927-0.545,9.258-4.067,8.996-8.94c-0.262-4.873-3.231-9.745-3.231-9.745"/>
			</g>
			<path style="fill:#FFFFFF;stroke:#263238;stroke-linecap:round;stroke-linejoin:round;stroke-miterlimit:10;" d="
				M335.469,254.538c0,0,5.604,3.516,7.016,4.598c1.412,1.082,1.519,8.121,2.404,9.474c0.885,1.353-0.154,2.166-1.779,2.167
				c-1.624,0.001-4.067-5.142-4.067-5.142l-0.102-1.895l-11.438,3.798l-2.984-5.142
				C324.519,262.397,327.888,254.543,335.469,254.538z"/>
		</g>
	</g>
</g>
<g id="Character_2">
	<g>
		
			<ellipse style="fill:#263238;stroke:#263238;stroke-linecap:round;stroke-linejoin:round;stroke-miterlimit:10;" cx="252.13" cy="455.197" rx="52.327" ry="11.803"/>
		<g>
			<path style="fill:#FFFFFF;stroke:#263238;stroke-linecap:round;stroke-linejoin:round;stroke-miterlimit:10;" d="
				M292.975,174.794c0,0,6.866,34.423,8.087,40.796c1.22,6.373,3.455,21.51,6.01,28.15c2.555,6.639,1.704,15.137,0.435,17.527
				c-1.268,2.39-4.37,5.842-4.37,5.842l-8.509-11.154c0,0-5.07-54.44-5.261-62.142C289.176,186.113,292.975,174.794,292.975,174.794
				z"/>
			<path style="fill:#FFFFFF;stroke:#263238;stroke-linecap:round;stroke-linejoin:round;stroke-miterlimit:10;" d="
				M297.518,254.639c0,0,5.405,3.375,6.349,4.802s1.638,3.245,0.898,4.802c-0.74,1.557-4.777,6.23-5.793,7.138
				c-1.016,0.909-1.885-2.726-1.962-5.84C296.932,262.426,297.518,254.639,297.518,254.639z"/>
			<g>
				<path style="fill:#FFFFFF;stroke:#263238;stroke-linecap:round;stroke-linejoin:round;stroke-miterlimit:10;" d="
					M268.479,443.442c0,0,16.935,8.232,18.037,9.826c1.102,1.593-2.829,3.718-12.92,3.718c-10.091,0-10.39-1.328-14.4-2.39
					c-4.01-1.062-11.957-0.266-13.078-2.656c-1.122-2.39,0.798-10.622,0.798-10.622L268.479,443.442z"/>
				<path style="fill:#FFFFFF;stroke:#263238;stroke-linecap:round;stroke-linejoin:round;stroke-miterlimit:10;" d="
					M246.011,447.691c0,0,14.02,8.498,12.765,11.419c-1.255,2.921-11.347,2.921-16.678,2.125
					c-5.331-0.797-16.663-7.967-17.26-10.622c-0.597-2.656,0.897-6.639,9.11-7.436C242.162,442.38,246.011,447.691,246.011,447.691z
					"/>
				<g>
					<path style="fill:#FFFFFF;stroke:#263238;stroke-linecap:round;stroke-linejoin:round;stroke-miterlimit:10;" d="
						M288.505,308.802c0,0-8.03,61.61-9.4,70.64c-1.369,9.029-5.793,23.369-8.179,34.257c-2.385,10.888-2.725,18.589-2.971,19.386
						c-0.246,0.797-0.193,2.921,0.138,5.577c0.332,2.656,0.384,4.78,0.384,4.78s-6.334,1.593-10.842,1.859
						c-4.508,0.266-10.616,0.266-10.616,0.266l-2.022-17.262c0,0,1.491-25.494,2.369-32.93c0.878-7.436,1.817-65.859,1.777-67.453
						c-0.04-1.593-0.389-15.668-0.389-15.668l27.28-2.921c0,0,3.72-10.623,9.31-10.091
						C290.936,299.773,288.505,308.802,288.505,308.802z"/>
					<path style="fill:#263238;stroke:#263238;stroke-linecap:round;stroke-linejoin:round;stroke-miterlimit:10;" d="
						M285.346,299.242c-5.59-0.531-9.31,10.091-9.31,10.091l-27.28,2.921c0,0,0.093,3.737,0.188,7.578
						c2.903,0.257,5.598,0.411,7.891,0.411c14.208,0,26.175-1.47,26.175-1.47l1.166-12.249l1.78,12.494l1.266-0.409
						c0.777-5.939,1.282-9.808,1.282-9.808S290.936,299.773,285.346,299.242z"/>
				</g>
				<g>
					<path style="fill:#FFFFFF;stroke:#263238;stroke-linecap:round;stroke-linejoin:round;stroke-miterlimit:10;" d="
						M220.302,310.661c0,0,0.019,0.376,0.055,1.069c0.377,7.264,2.57,49.331,3.248,57.089c0.742,8.498-3.01,17.793-2.819,25.494
						c0.191,7.701,2.023,49.395,2.023,49.395l2.03,6.905c0,0,4.701-3.187,9.216-3.187c4.514,0,11.957,0.266,11.957,0.266
						s0.393-5.577,0.347-7.436c-0.046-1.859-0.211-8.498-0.211-8.498s7.634-34.789,8.093-37.71
						c0.459-2.921,6.376-53.378,6.336-54.971c-0.039-1.593,1.259-24.166,1.259-24.166L220.302,310.661z"/>
					<path style="fill:#263238;stroke:#263238;stroke-linecap:round;stroke-linejoin:round;stroke-miterlimit:10;" d="
						M261.535,320.191c0.173-3.078,0.3-5.281,0.3-5.281l-41.533-4.249c0,0,0.019,0.376,0.055,1.069
						c0.045,0.876,0.118,2.267,0.21,4.033c9.713,1.739,26.564,4.481,36.269,4.481C258.436,320.244,260.006,320.224,261.535,320.191z
						"/>
				</g>
			</g>
			<g>
				<path style="fill:#FFFFFF;stroke:#263238;stroke-linecap:round;stroke-linejoin:round;stroke-miterlimit:10;" d="M250.9,147.602
					c0,0-4.391,0.735-6.057,2.695c-1.666,1.96-4.276,5.389-4.502,6.124c-0.227,0.735-26.049,16.413-26.049,16.413l1.855,74.717
					c0,0,0.776,11.514-0.597,15.433c-1.372,3.92-3.567,14.208-3.329,23.762c0.237,9.554,0.865,24.987,0.865,24.987
					s29.543,5.879,43.751,5.879c14.208,0,26.176-1.47,26.176-1.47l1.166-12.249l1.78,12.493l6.076-1.96l4.961-36.991
					c0,0,3.48-7.839,3.437-9.554c-0.042-1.715,0.883-3.92-0.134-5.389c-1.016-1.47-2.804-4.41-2.804-4.41
					s-4.463-81.086-4.518-83.291c-0.055-2.205-13.361-15.188-14.353-15.678c-0.992-0.49-7.096-9.554-14.996-12.004
					C255.726,144.662,250.9,147.602,250.9,147.602z"/>
				<polyline style="fill:none;stroke:#263238;stroke-linecap:round;stroke-linejoin:round;stroke-miterlimit:10;" points="
					242.85,158.87 239.887,185.784 252.052,191.432 249.011,200.556 279.424,253.997 				"/>
				<polyline style="fill:none;stroke:#263238;stroke-linecap:round;stroke-linejoin:round;stroke-miterlimit:10;" points="
					276.817,161.888 285.941,183.177 282.031,188.391 288.548,197.515 285.941,256.169 				"/>
			</g>
			<path style="fill:#C6FF00;stroke:#263238;stroke-linecap:round;stroke-linejoin:round;stroke-miterlimit:10;" d="
				M249.766,151.276c0,0,0.201,8.084,2.833,15.433c2.632,7.349,20.059,58.058,20.059,58.058l11.274,39.686
				c0,0-1.494-40.42-1.536-42.135c-0.043-1.715-8.54-57.813-8.54-57.813s-1.45-9.064-3.74-12.494
				C267.827,148.582,252.48,142.212,249.766,151.276z"/>
			<g>
				<path style="fill:none;stroke:#263238;stroke-width:2;stroke-linecap:round;stroke-linejoin:round;stroke-miterlimit:10;" d="
					M248.689,147.357c0,0-7.086,0.735-5.838,11.514c1.247,10.779,2.9,18.128,2.9,18.128"/>
				<path style="fill:none;stroke:#263238;stroke-linecap:round;stroke-linejoin:round;stroke-miterlimit:10;" d="M244.878,191.207
					c0,0,3.005,12.493,5.05,15.923c2.045,3.43,8.254,6.859,12.664,6.859"/>
				<path style="fill:none;stroke:#263238;stroke-linecap:round;stroke-linejoin:round;stroke-miterlimit:10;" d="M254.359,188.267
					c0,0,3.299,14.453,3.855,17.148c0.557,2.695-1.275,7.839-4.332,12.984"/>
				<path style="fill:#263238;" d="M252.948,220.13L252.948,220.13c-0.654-0.371-0.897-1.195-0.542-1.84l0.35-0.637
					c0.355-0.645,1.173-0.867,1.827-0.496l0,0c0.654,0.371,0.897,1.194,0.542,1.84l-0.351,0.637
					C254.42,220.279,253.602,220.501,252.948,220.13z"/>
				<path style="fill:#263238;" d="M264.226,214.264L264.226,214.264c-0.002,0.744-0.607,1.33-1.352,1.309l-0.735-0.02
					c-0.744-0.021-1.346-0.64-1.344-1.384l0,0c0.002-0.744,0.607-1.33,1.352-1.309l0.735,0.02
					C263.627,212.9,264.228,213.52,264.226,214.264z"/>
				<path style="fill:none;stroke:#263238;stroke-width:2;stroke-linecap:round;stroke-linejoin:round;stroke-miterlimit:10;" d="
					M244.902,192.187l-1.684-10.646c-0.364-2.3,1.07-4.458,3.316-4.989h0c2.395-0.567,4.848,0.912,5.498,3.315l2.871,10.605"/>
			</g>
			<g>
				
					<ellipse transform="matrix(0.995 -0.0997 0.0997 0.995 -17.9692 29.2909)" style="fill:#FFFFFF;stroke:#263238;stroke-linecap:round;stroke-linejoin:round;stroke-miterlimit:10;" cx="283.937" cy="194.345" rx="4.376" ry="5.052"/>
				<path style="fill:none;stroke:#263238;stroke-width:2;stroke-linecap:round;stroke-linejoin:round;stroke-miterlimit:10;" d="
					M272.126,151.855c0,0,9.631,13.544,12.707,41.162"/>
				<path style="fill:#FFFFFF;stroke:#263238;stroke-linecap:round;stroke-linejoin:round;stroke-miterlimit:10;" d="
					M287.233,193.415c0.038,1.54-1.001,2.788-2.321,2.788c-1.32,0-2.421-1.248-2.459-2.788c-0.038-1.54,1.001-2.788,2.321-2.788
					S287.195,191.876,287.233,193.415z"/>
			</g>
			<path style="fill:#FFFFFF;stroke:#263238;stroke-linecap:round;stroke-linejoin:round;stroke-miterlimit:10;" d="
				M299.163,256.752c0,0-1.475,4.78-1.455,5.577c0.02,0.797-0.187,3.187-2.059,2.656c-1.872-0.531-1.313-10.091-1.074-11.154
				c0.239-1.062,4.798,2.365,4.798,2.365"/>
			<g>
				<path style="fill:#FFFFFF;stroke:#263238;stroke-linecap:round;stroke-linejoin:round;stroke-miterlimit:10;" d="
					M238.456,248.285c0,0,2.486,1.47,5.426,1.47c2.94,0,8.305-0.98,10.277-0.49c1.972,0.49,7.03,6.859,7.03,6.859
					s1.506,1.47,0.79,2.205c-0.717,0.735-2.156,1.96-3.154,1.225c-0.998-0.735-6.001-4.899-6.001-4.899l-12.611,5.144l-5.211-2.695
					L238.456,248.285z"/>
				<path style="fill:#FFFFFF;stroke:#263238;stroke-linecap:round;stroke-linejoin:round;stroke-miterlimit:10;" d="
					M219.147,171.119c0,0-8.305,0.98-9.72,3.185c-1.415,2.205-24.182,52.179-24.127,54.384c0.055,2.205,45.528,37.971,45.528,37.971
					l9.827-18.618l-24.573-22.782l10.654-24.742"/>
				<polyline style="fill:none;stroke:#263238;stroke-linecap:round;stroke-linejoin:round;stroke-miterlimit:10;" points="
					234.483,275.722 258.503,276.212 258.376,261.269 				"/>
				
					<line style="fill:none;stroke:#263238;stroke-linecap:round;stroke-linejoin:round;stroke-miterlimit:10;" x1="240.212" y1="259.799" x2="233.857" y2="262.165"/>
			</g>
			<g>
				<path style="fill:#FFFFFF;stroke:#263238;stroke-linecap:round;stroke-linejoin:round;stroke-miterlimit:10;" d="
					M247.447,136.823c0,0,2.734,21.313,4.528,24.497c1.794,3.185,14.604,15.923,14.604,15.923s4.044-14.698,4.449-18.128
					s0.799-17.148,0.799-17.148l-24.423-6.859L247.447,136.823z"/>
				<path style="fill:#263238;stroke:#263238;stroke-linecap:round;stroke-linejoin:round;stroke-miterlimit:10;" d="
					M247.447,136.823c0,0,0.32,2.498,0.814,5.91c1.698,1.551,3.929,3.222,6.477,4.342c3.155,1.387,11.553,2.165,16.866,1.547
					c0.135-3.592,0.223-6.654,0.223-6.654l-24.422-6.859L247.447,136.823z"/>
				<g>
					<path style="fill:#FFFFFF;stroke:#263238;stroke-linecap:round;stroke-linejoin:round;stroke-miterlimit:10;" d="
						M240.371,118.205c0,0-3.27-3.43-4.887,0.49c-1.617,3.92,1.958,9.799,3.924,10.044c1.966,0.245,3.424-0.245,3.424-0.245
						s1.365,5.634,2.632,7.349c1.267,1.715,4.816,5.377,9.274,7.337c4.458,1.96,19.392,2.707,21.285,0.012
						c1.893-2.695,1.779-17.148,1.749-18.373c-0.03-1.225-0.244-18.679-0.244-18.679s1.345-6.063-0.473-10.228
						c-1.818-4.164-20.092-10.044-24.686-7.594c-4.594,2.45-9.88,6.614-10.236,12.004c-0.356,5.389-0.137,14.208-0.137,14.208
						L240.371,118.205z"/>
					<path style="fill:none;stroke:#263238;stroke-linecap:round;stroke-linejoin:round;stroke-miterlimit:10;" d="M267.374,110.611
						c0,0,3.041,13.963,2.349,15.678c-0.692,1.715-2.897,1.715-5.628,0.245c-2.731-1.47-1.31-3.43-1.31-3.43"/>
					<path style="fill:none;stroke:#263238;stroke-linecap:round;stroke-linejoin:round;stroke-miterlimit:10;" d="M256.752,126.779
						c0,0,1.316,3.675,3.772,3.919c2.456,0.245,8.592,0.735,8.592,0.735"/>
					<path style="fill:none;stroke:#263238;stroke-linecap:round;stroke-linejoin:round;stroke-miterlimit:10;" d="M248.033,111.101
						l0.391,5.879c0,0,2.235,1.225,7.38,1.225c5.144,0,6.829-1.225,6.829-1.225l-0.146-5.879
						C262.487,111.101,255.028,106.691,248.033,111.101z"/>
					<path style="fill:none;stroke:#263238;stroke-linecap:round;stroke-linejoin:round;stroke-miterlimit:10;" d="M267.386,111.101
						l1.867,6.124c0,0,0.759,0.98,5.904,0.98c5.144,0,6.829-1.225,6.829-1.225l-0.146-5.879
						C281.84,111.101,274.381,106.691,267.386,111.101z"/>
					
						<line style="fill:none;stroke:#263238;stroke-linecap:round;stroke-linejoin:round;stroke-miterlimit:10;" x1="262.487" y1="111.101" x2="267.386" y2="111.101"/>
					
						<line style="fill:none;stroke:#263238;stroke-linecap:round;stroke-linejoin:round;stroke-miterlimit:10;" x1="248.033" y1="111.101" x2="238.374" y2="116.735"/>
					<path style="fill:none;stroke:#263238;stroke-linecap:round;stroke-linejoin:round;stroke-miterlimit:10;" d="M250.41,108.161
						c0,0,2.622-2.94,8.562-0.49"/>
					<path style="fill:none;stroke:#263238;stroke-linecap:round;stroke-linejoin:round;stroke-miterlimit:10;" d="M268.293,108.161
						c0,0,2.879-2.45,6.351-0.735"/>
					<path style="fill:#263238;" d="M256.674,113.796c0.027,1.082-0.39,1.96-0.931,1.96c-0.541,0-1.002-0.877-1.028-1.96
						c-0.027-1.082,0.39-1.96,0.931-1.96C256.187,111.836,256.647,112.713,256.674,113.796z"/>
					<path style="fill:#263238;" d="M272.346,113.551c0.027,1.082-0.39,1.96-0.931,1.96s-1.002-0.878-1.029-1.96
						c-0.027-1.082,0.39-1.96,0.931-1.96C271.859,111.591,272.32,112.468,272.346,113.551z"/>
				</g>
				<path style="fill:#263238;stroke:#263238;stroke-linecap:round;stroke-linejoin:round;stroke-miterlimit:10;" d="M255.573,90.89
					c0,0,2.361,5.208-0.568,7.067c-2.93,1.86-5.952,0-5.952,0s2.687,3.348,0.185,7.439c-2.502,4.092-5.041,6.696-5.041,6.696
					s0.529,6.324-0.568,7.067c-1.098,0.744-4.101-0.372-4.147-2.232c-0.046-1.86-1.255-5.58-1.301-7.439
					c-0.046-1.86-0.91-6.696-0.91-6.696s-7.523-3.348-3.533-7.439c3.99-4.092,12.462-7.439,12.462-7.439s0.187-7.44,5.339-9.671
					c5.152-2.232,16.228-5.58,16.321-1.86c0.092,3.72-0.977,5.58-0.977,5.58s9.29-0.372,15.771,5.952
					c6.481,6.324,6.256,12.275,2.909,12.275c-3.348,0-4.445,0.744-4.445,0.744s6.416,3.72,3.114,5.58
					c-3.302,1.86-6.705-0.372-6.705-0.372s1.423-2.604-2.752-5.952C270.6,96.841,255.573,90.89,255.573,90.89z"/>
			</g>
		</g>
	</g>
</g>
<g id="Character_1">
	<g>
		
			<ellipse style="fill:#263238;stroke:#263238;stroke-linecap:round;stroke-linejoin:round;stroke-miterlimit:10;" cx="128.683" cy="455.197" rx="52.327" ry="11.803"/>
		<g>
			<path style="fill:#999999;stroke:#263238;stroke-linecap:round;stroke-linejoin:round;stroke-miterlimit:10;" d="M163.138,211.13
				v9.558l13.903,6.372c0,0,1.448-6.372,0.29-17.668L163.138,211.13z"/>
			<g>
				<path style="fill:#FFFFFF;stroke:#263238;stroke-linecap:round;stroke-linejoin:round;stroke-miterlimit:10;" d="
					M94.151,440.543c0,0-5.046,4.249-9.029,8.764c-3.983,4.514-4.78,9.029-1.062,11.154c3.718,2.125,9.56,1.593,15.934-2.39
					s6.108-5.577,9.826-6.905c3.718-1.328,6.108-3.983,6.108-8.232s-13.544-4.78-16.465-5.046
					C96.541,437.621,94.151,440.543,94.151,440.543z"/>
				<path style="fill:none;stroke:#263238;stroke-linecap:round;stroke-linejoin:round;stroke-miterlimit:10;" d="M115.927,442.933
					c0,0-5.998,2.654-8.903,5.075c-2.905,2.421-8.715,11.136-15.494,11.136c-4.615,0-8.104-1.57-9.864-2.573
					c0.031,1.612,0.791,2.974,2.393,3.889c3.718,2.125,9.56,1.593,15.934-2.39s6.108-5.577,9.826-6.905
					C113.537,449.837,115.927,447.182,115.927,442.933z"/>
			</g>
			<g>
				<path style="fill:#FFFFFF;stroke:#263238;stroke-linecap:round;stroke-linejoin:round;stroke-miterlimit:10;" d="
					M161.539,440.543c0,0,5.046,4.249,9.029,8.764c3.983,4.514,4.78,9.029,1.062,11.154c-3.718,2.125-9.56,1.593-15.934-2.39
					c-6.374-3.983-6.108-5.577-9.826-6.905c-3.718-1.328-6.108-3.983-6.108-8.232s13.544-4.78,16.465-5.046
					C159.149,437.621,161.539,440.543,161.539,440.543z"/>
				<path style="fill:none;stroke:#263238;stroke-linecap:round;stroke-linejoin:round;stroke-miterlimit:10;" d="M139.763,442.933
					c0,0,5.998,2.654,8.903,5.075c2.905,2.421,8.715,11.136,15.494,11.136c4.615,0,8.104-1.57,9.864-2.573
					c-0.031,1.612-0.791,2.974-2.393,3.889c-3.718,2.125-9.56,1.593-15.934-2.39c-6.374-3.983-6.108-5.577-9.826-6.905
					C142.153,449.837,139.763,447.182,139.763,442.933z"/>
			</g>
			<g>
				<path style="fill:#C6FF00;stroke:#263238;stroke-linecap:round;stroke-linejoin:round;stroke-miterlimit:10;" d="M86.45,289.703
					c0,0,1.593,59.751,2.39,68.515c0.797,8.763,3.187,28.681,3.187,29.743c0,1.062,1.328,45.146,1.328,45.146l-2.39,3.983
					l0.797,5.577c0,0,5.311,1.062,10.622,2.124c5.311,1.062,12.216,2.656,13.278,1.593c1.062-1.062,1.328-3.187,1.859-6.108
					c0.531-2.921,1.593-8.232,0.531-12.482c-1.062-4.249,1.328-49.394,1.593-50.457c0.266-1.062,6.373-44.614,6.373-44.614
					s3.983,35.851,6.905,46.739c2.921,10.888,1.859,27.087,2.921,33.461c1.062,6.374,3.187,27.884,3.452,29.477
					c0.266,1.593,0.797,3.983,0.797,3.983s13.278-1.859,15.668-2.921c2.39-1.062,7.436-2.125,7.436-2.125s0.797-15.137-0.266-21.245
					c-1.062-6.108-1.328-11.154-1.328-13.012c0-1.859,1.328-60.814,1.328-60.814l-1.328-57.096c0,0-35.851,3.718-49.66,1.062
					c-13.809-2.656-25.228-4.249-25.228-4.249L86.45,289.703z"/>
				<path style="fill:#263238;stroke:#263238;stroke-linecap:round;stroke-linejoin:round;stroke-miterlimit:10;" d="
					M111.944,290.235c-13.809-2.656-25.228-4.249-25.228-4.249l-0.266,3.718c0,0,0.091,3.424,0.241,8.745
					c6.328,1.773,19.192,4.88,31.616,4.88c13.146,0,34.07-3.976,43.489-5.913l-0.192-8.244
					C161.604,289.172,125.753,292.89,111.944,290.235z"/>
				<path style="fill:none;stroke:#263238;stroke-linecap:round;stroke-linejoin:round;stroke-miterlimit:10;" d="M158.07,424.793
					c0.173,1.832,0.277,2.879,0.277,2.879"/>
				<path style="fill:none;stroke:#263238;stroke-linecap:round;stroke-linejoin:round;stroke-miterlimit:10;" d="M153.99,303.721
					c0,0,0.968,51.323,0.968,70.691c0,13.395,1.621,33.738,2.621,45.011"/>
				
					<line style="fill:none;stroke:#263238;stroke-linecap:round;stroke-linejoin:round;stroke-miterlimit:10;" x1="100.245" y1="300.816" x2="102.666" y2="356.497"/>
				
					<line style="fill:none;stroke:#263238;stroke-linecap:round;stroke-linejoin:round;stroke-miterlimit:10;" x1="102.182" y1="360.854" x2="102.182" y2="370.054"/>
			</g>
			<g>
				<path style="fill:#C6FF00;stroke:#263238;stroke-linecap:round;stroke-linejoin:round;stroke-miterlimit:10;" d="
					M114.767,149.436c0,0-3.765-0.29-6.662,3.476c-2.896,3.765-5.503,6.083-5.503,6.083l-23.751,12.744l2.317,90.659l0.869,30.992
					c0,0,18.248,6.082,35.626,6.082c17.379,0,48.371-6.951,48.371-6.951s-2.607-120.782-1.738-120.782
					c0.869,0-17.089-15.641-25.199-19.696C130.987,147.987,114.767,149.436,114.767,149.436z"/>
				<path style="fill:none;stroke:#263238;stroke-linecap:round;stroke-linejoin:round;stroke-miterlimit:10;" d="M107.992,160.403
					c0,0,9.199,16.946,13.073,24.693c3.873,7.747,11.136,18.883,11.136,18.883l12.105-32.44"/>
				<path style="fill:none;stroke:#263238;stroke-linecap:round;stroke-linejoin:round;stroke-miterlimit:10;" d="M114.8,267.907
					l-0.466-13.523l-27.353-1.593c0,0,0.266,19.917,0.797,20.979"/>
				
					<line style="fill:none;stroke:#263238;stroke-linecap:round;stroke-linejoin:round;stroke-miterlimit:10;" x1="115.13" y1="277.488" x2="115" y2="273.694"/>
				<path style="fill:none;stroke:#263238;stroke-linecap:round;stroke-linejoin:round;stroke-miterlimit:10;" d="M147.529,275.363
					l-0.797-22.307c0,0,9.56,0.797,17.527-4.515"/>
			</g>
			<g>
				<path style="fill:none;stroke:#263238;stroke-linecap:round;stroke-linejoin:round;stroke-miterlimit:10;" d="M106.545,199.92
					c0.849,2.654,3.406,4.208,5.711,3.471s3.485-3.486,2.636-6.141c-0.849-2.654-3.406-4.208-5.711-3.471
					C106.877,194.516,105.696,197.266,106.545,199.92z"/>
				<path style="fill:none;stroke:#263238;stroke-width:2;stroke-linecap:round;stroke-linejoin:round;stroke-miterlimit:10;" d="
					M106.824,153.523c0,0-3.078,11.8,3.902,43.824"/>
				<path style="fill:none;stroke:#263238;stroke-linecap:round;stroke-linejoin:round;stroke-miterlimit:10;" d="M112.881,198.454
					c-0.469,1.467-1.869,2.33-3.126,1.928c-1.257-0.402-1.896-1.917-1.427-3.384c0.469-1.467,1.869-2.33,3.126-1.928
					C112.711,195.472,113.35,196.988,112.881,198.454z"/>
			</g>
			<path style="fill:#C6FF00;stroke:#263238;stroke-linecap:round;stroke-linejoin:round;stroke-miterlimit:10;" d="
				M163.138,170.001c0,0,4.345,3.186,4.634,4.345c0.29,1.159,15.062,36.495,15.062,36.495l-21.434,3.186l0.29-20.855"/>
			<path style="fill:#C6FF00;stroke:#263238;stroke-linecap:round;stroke-linejoin:round;stroke-miterlimit:10;" d="M81.747,170.58
				c0,0-4.924,0.579-6.082,4.345s-9.558,41.999-9.558,41.999l30.702-2.896l-2.896-28.675"/>
			<g>
				<path style="fill:none;stroke:#263238;stroke-width:2;stroke-linecap:round;stroke-linejoin:round;stroke-miterlimit:10;" d="
					M141.05,151.717c0,0,7.612,4.347,8.355,15.144c0.743,10.798-0.022,13.538-0.022,13.538"/>
				<path style="fill:none;stroke:#263238;stroke-linecap:round;stroke-linejoin:round;stroke-miterlimit:10;" d="M152.847,194.234
					c0,0-0.677,12.763-2.068,16.46c-1.391,3.697-6.893,8.056-11.246,8.755"/>
				<path style="fill:none;stroke:#263238;stroke-linecap:round;stroke-linejoin:round;stroke-miterlimit:10;" d="M142.948,192.848
					c0,0-0.608,14.737-0.664,17.475c-0.056,2.738,2.695,7.507,6.656,12.08"/>
				<path style="fill:#263238;" d="M150.118,224.007l0.123-0.099c0.544-0.441,0.628-1.24,0.186-1.784l-0.562-0.694
					c-0.441-0.544-1.24-0.628-1.784-0.187l-0.123,0.099c-0.544,0.441-0.628,1.24-0.187,1.784l0.562,0.693
					C148.775,224.365,149.574,224.448,150.118,224.007z"/>
				<path style="fill:#263238;" d="M137.955,219.901l0.029,0.155c0.13,0.688,0.794,1.141,1.482,1.01l0.877-0.166
					c0.688-0.13,1.141-0.794,1.01-1.482l-0.029-0.155c-0.13-0.688-0.794-1.141-1.482-1.01l-0.877,0.166
					C138.277,218.549,137.825,219.213,137.955,219.901z"/>
				<path style="fill:none;stroke:#263238;stroke-width:2;stroke-linecap:round;stroke-linejoin:round;stroke-miterlimit:10;" d="
					M153.003,195.201l-0.288-10.736c-0.062-2.319-1.874-4.214-4.188-4.38l0,0c-2.468-0.177-4.619,1.666-4.821,4.133l-0.891,10.884"
					/>
			</g>
			<g>
				<path style="fill:#999999;stroke:#263238;stroke-linecap:round;stroke-linejoin:round;stroke-miterlimit:10;" d="M177.91,219.82
					l-6.951-1.448l-24.33-4.055l-34.123-6.5l-8.088-3.57c0,0-7.643-9.969-8.308-10.966c-0.665-0.997-9.305,2.492-8.972,3.822
					c0.332,1.329,1.329,14.622,1.994,15.453c0.665,0.831,8.142,0.831,8.142,0.831s35.634,17.202,37.121,17.829
					c20.571,8.678,30.482,8.59,33.958,9.169c3.476,0.579,5.797-0.851,7.822-3.177S177.91,219.82,177.91,219.82z"/>
				<path style="fill:#999999;stroke:#263238;stroke-linecap:round;stroke-linejoin:round;stroke-miterlimit:10;" d="
					M95.113,193.115c0,0-4.154,0.166-10.302,4.32c-2.291,1.548-3.489,2.659-3.489,3.323c0,0.665,0.665,2.326,0.665,2.326
					s6.813-3.323,12.462-4.486"/>
				<path style="fill:#999999;stroke:#263238;stroke-linecap:round;stroke-linejoin:round;stroke-miterlimit:10;" d="
					M96.774,203.749c0,0-11.299,2.825-13.127,3.157c-1.828,0.332-2.16-1.495-2.16-2.16c0-0.665,0.498-1.661,2.492-2.659
					c1.994-0.997,11.963-3.656,11.963-3.656"/>
				<path style="fill:#999999;stroke:#263238;stroke-linecap:round;stroke-linejoin:round;stroke-miterlimit:10;" d="M97.937,208.9
					c0,0-13.127,1.329-14.123,0.499c-0.997-0.831-0.831-2.492-0.831-2.492l11.797-2.492"/>
				<path style="fill:#999999;stroke:#263238;stroke-linecap:round;stroke-linejoin:round;stroke-miterlimit:10;" d="
					M94.282,209.564l-10.136,0.499c0,0,0.498,1.495,0.997,1.662c0.499,0.166,5.317,1.163,7.311,1.163
					c1.994,0,4.819,0.498,4.819,0.498"/>
			</g>
			<path style="fill:#999999;stroke:#263238;stroke-linecap:round;stroke-linejoin:round;stroke-miterlimit:10;" d="M72.479,216.344
				c0,0,4.634,19.986,5.793,21.434c1.159,1.448,10.717,0,20.275-2.896c9.558-2.896,50.109-20.275,50.109-20.275l5.793,1.159
				c0,0-2.317-7.241-6.372-7.531c-4.055-0.29-51.267,5.793-51.267,5.793L72.479,216.344z"/>
			<g>
				<path style="fill:#999999;stroke:#263238;stroke-linecap:round;stroke-linejoin:round;stroke-miterlimit:10;" d="
					M113.029,136.691c0,0,0.007,0.427,0.025,1.158c0.091,3.815,0.451,15.911,1.423,18.828c1.159,3.476,16.799,32.73,17.958,30.413
					c1.159-2.317,8.4-33.889,8.4-33.889v-12.455c0,0-3.765,3.186-10.717,3.186C123.167,143.932,113.029,136.691,113.029,136.691z"/>
				<path style="fill:#263238;stroke:#263238;stroke-linecap:round;stroke-linejoin:round;stroke-miterlimit:10;" d="
					M136.201,153.845c1.207-0.671,2.971-1.962,4.634-3.3v-9.8c0,0-3.765,3.186-10.717,3.186c-6.951,0-17.089-7.241-17.089-7.241
					s0.007,0.427,0.025,1.158c0.032,1.342,0.098,3.715,0.212,6.346c0.308,0.472,0.618,0.903,0.922,1.25
					c2.028,2.317,11.586,8.11,13.903,8.689C130.408,154.714,133.594,155.294,136.201,153.845z"/>
				<g>
					<path style="fill:#999999;stroke:#263238;stroke-linecap:round;stroke-linejoin:round;stroke-miterlimit:10;" d="
						M147.787,119.892c0,0,4.634-2.607,4.634,2.317c0,4.924-4.345,10.717-4.345,10.717L147.787,119.892z"/>
					<path style="fill:#999999;stroke:#263238;stroke-linecap:round;stroke-linejoin:round;stroke-miterlimit:10;" d="
						M106.367,120.181c0,0-6.372-1.738-6.372,4.055s5.793,9.558,5.793,9.558h4.055c0,0,2.317,5.793,4.345,8.11
						c2.027,2.317,11.586,8.11,13.903,8.689c2.317,0.579,5.503,1.159,8.11-0.29c2.607-1.448,7.82-5.793,8.979-7.241
						c1.159-1.448,3.186-11.296,3.186-11.296s0.579-17.668-0.579-23.751c-1.159-6.082-8.689-15.641-19.117-16.799
						c-10.427-1.159-20.275,7.241-21.723,13.903C105.498,111.782,106.367,120.181,106.367,120.181z"/>
					<g>
						<path style="fill:none;stroke:#263238;stroke-linecap:round;stroke-linejoin:round;stroke-miterlimit:10;" d="
							M125.194,124.816c0,0-2.028,4.055,1.448,5.214c3.476,1.159,7.82,0.869,8.689-0.869c0.869-1.738-0.579-3.765-0.579-3.765"/>
						<path style="fill:none;stroke:#263238;stroke-linecap:round;stroke-linejoin:round;stroke-miterlimit:10;" d="
							M121.718,132.057c0,0,7.241,6.083,17.089,0.29"/>
						<path style="fill:none;stroke:#263238;stroke-linecap:round;stroke-linejoin:round;stroke-miterlimit:10;" d="M125.773,137.56
							c0,0,6.083,3.476,10.138-0.579"/>
						<ellipse style="fill:#263238;" cx="122.298" cy="119.023" rx="1.448" ry="2.317"/>
						<path style="fill:#263238;" d="M137.939,118.733c0,1.28-0.648,2.317-1.448,2.317c-0.8,0-1.448-1.037-1.448-2.317
							c0-1.28,0.648-2.317,1.448-2.317C137.29,116.416,137.939,117.453,137.939,118.733z"/>
						<path style="fill:none;stroke:#263238;stroke-linecap:round;stroke-linejoin:round;stroke-miterlimit:10;" d="
							M118.243,115.837c0,0,1.448-2.317,6.951-1.448"/>
						<path style="fill:none;stroke:#263238;stroke-linecap:round;stroke-linejoin:round;stroke-miterlimit:10;" d="
							M134.173,114.678c0,0,2.607-4.055,6.662,0"/>
					</g>
					<g>
						<path style="fill:#263238;stroke:#263238;stroke-linecap:round;stroke-linejoin:round;stroke-miterlimit:10;" d="
							M147.787,108.016c-0.281-1.476-0.944-3.157-1.926-4.872c-0.275,1.809-0.571,3.773-0.351,4.876
							c0.423,2.117,1.905,5.081,1.905,6.563s-0.212,7.41,0.847,6.563c0.078-0.063,0.16-0.194,0.244-0.372
							C148.481,115.961,148.314,110.787,147.787,108.016z"/>
						<path style="fill:#263238;stroke:#263238;stroke-linecap:round;stroke-linejoin:round;stroke-miterlimit:10;" d="
							M133.231,95.952c2.546-0.141,4.502-0.469,5.535-0.672c-2.867-2.088-6.285-3.64-10.096-4.063
							c-10.427-1.159-20.275,7.241-21.723,13.903c-1.448,6.662-0.579,15.062-0.579,15.062s2.305,1.6,3.152-0.094
							c0.847-1.694,0-4.446,0.847-7.41c0.847-2.964,2.117-4.446,2.329-6.775c0.212-2.329-1.27-5.716-0.423-7.622
							c0.847-1.905,6.14-5.505,9.527-4.234C125.186,95.317,129.42,96.164,133.231,95.952z"/>
					</g>
				</g>
			</g>
		</g>
	</g>
</g>
</svg>
