<svg width="149" height="135" viewBox="0 0 149 135" fill="none" xmlns="http://www.w3.org/2000/svg">
<mask id="path-1-inside-1_1266_74" fill="white">
<path fill-rule="evenodd" clip-rule="evenodd" d="M136.282 12.9394C152.864 29.5211 152.864 56.4052 136.282 72.9869C134.821 74.4479 133.28 75.7803 131.673 76.9838L73.6569 135L15.0274 76.3705C14.2977 75.7337 13.5845 75.0677 12.8894 74.3726C-3.69229 57.791 -3.69229 30.9068 12.8894 14.3252C29.471 -2.25648 56.3552 -2.25648 72.9368 14.3252C73.1777 14.566 73.4151 14.8091 73.649 15.0543L73.6581 15.0451L73.9834 15.3705C74.6964 14.5383 75.4468 13.7272 76.2346 12.9394C92.8162 -3.64224 119.7 -3.64224 136.282 12.9394Z"/>
</mask>
<path d="M136.282 72.9869L146.889 83.5935L146.889 83.5935L136.282 72.9869ZM136.282 12.9394L146.889 2.33281L146.889 2.33281L136.282 12.9394ZM131.673 76.9838L122.681 64.978L121.824 65.62L121.066 66.3772L131.673 76.9838ZM73.6569 135L63.0503 145.607L73.6569 156.213L84.2635 145.607L73.6569 135ZM15.0274 76.3705L25.634 65.7639L25.2737 65.4035L24.8897 65.0684L15.0274 76.3705ZM12.8894 74.3726L23.496 63.766L23.496 63.766L12.8894 74.3726ZM12.8894 14.3252L2.28276 3.71856L12.8894 14.3252ZM72.9368 14.3252L83.5434 3.71856L83.5434 3.71856L72.9368 14.3252ZM73.649 15.0543L62.7956 25.4082L73.3963 36.5202L84.2556 25.6609L73.649 15.0543ZM73.6581 15.0451L84.2647 4.43854L73.6581 -6.16806L63.0515 4.43854L73.6581 15.0451ZM73.9834 15.3705L63.3768 25.9771L74.833 37.4332L85.3742 25.13L73.9834 15.3705ZM76.2346 12.9394L65.628 2.33281L65.628 2.33284L76.2346 12.9394ZM146.889 83.5935C169.328 61.154 169.328 24.7723 146.889 2.33281L125.675 23.546C136.399 34.2698 136.399 51.6565 125.675 62.3803L146.889 83.5935ZM140.665 88.9897C142.841 87.3599 144.922 85.5603 146.889 83.5935L125.675 62.3802C124.72 63.3356 123.719 64.2006 122.681 64.978L140.665 88.9897ZM121.066 66.3772L63.0503 124.393L84.2635 145.607L142.28 87.5904L121.066 66.3772ZM84.2635 124.393L25.634 65.7639L4.42084 86.9771L63.0503 145.607L84.2635 124.393ZM2.28275 84.9792C3.2182 85.9147 4.17968 86.8126 5.1652 87.6725L24.8897 65.0684C24.4156 64.6548 23.9507 64.2208 23.496 63.766L2.28275 84.9792ZM2.28276 3.71856C-20.1568 26.1581 -20.1568 62.5397 2.28276 84.9792L23.496 63.766C12.7722 53.0422 12.7722 35.6555 23.496 24.9318L2.28276 3.71856ZM83.5434 3.71856C61.1039 -18.7209 24.7223 -18.721 2.28276 3.71856L23.496 24.9318C34.2197 14.208 51.6064 14.208 62.3302 24.9318L83.5434 3.71856ZM84.5023 4.70031C84.1873 4.37004 83.8676 4.04276 83.5434 3.71856L62.3302 24.9318C62.4878 25.0893 62.6429 25.2482 62.7956 25.4082L84.5023 4.70031ZM84.2556 25.6609L84.2647 25.6517L63.0515 4.43854L63.0424 4.44767L84.2556 25.6609ZM63.0515 25.6517L63.3768 25.9771L84.59 4.76386L84.2647 4.43854L63.0515 25.6517ZM65.628 2.33284C64.5677 3.39308 63.5558 4.48673 62.5926 5.6109L85.3742 25.13C85.837 24.5899 86.3258 24.0614 86.8412 23.546L65.628 2.33284ZM146.889 2.33281C124.449 -20.1067 88.0675 -20.1067 65.628 2.33281L86.8412 23.546C97.565 12.8222 114.952 12.8222 125.675 23.546L146.889 2.33281Z" fill="#036C53" mask="url(#path-1-inside-1_1266_74)"/>
<path d="M54.8824 71.1051C59.0243 71.0632 62.3481 67.6716 62.3062 63.5297C62.2644 59.3878 58.8727 56.064 54.7308 56.1059L54.8824 71.1051ZM38.0856 71.2748L54.8824 71.1051L54.7308 56.1059L37.934 56.2756L38.0856 71.2748Z" fill="#036C53"/>
<path d="M54.875 63.6055L58.498 56.3659" stroke="#036C53" stroke-width="15" stroke-linecap="round"/>
<path d="M58.5664 56.4623L70.4492 80.5633" stroke="#036C53" stroke-width="15" stroke-linecap="round"/>
<path d="M70.4492 80.5633L82.2461 45.0673" stroke="#036C53" stroke-width="15" stroke-linecap="round"/>
<path d="M82.2461 45.0673L89.0645 65.024" stroke="#036C53" stroke-width="15" stroke-linecap="round"/>
<path d="M88.9855 57.5245C84.8436 57.5681 81.5212 60.9612 81.5649 65.1031C81.6085 69.245 85.0015 72.5673 89.1434 72.5237L88.9855 57.5245ZM89.1434 72.5237L106.067 72.3455L105.909 57.3463L88.9855 57.5245L89.1434 72.5237Z" fill="#036C53"/>
</svg>
