<svg width="30" height="31" viewBox="0 0 30 31" fill="none" xmlns="http://www.w3.org/2000/svg">
<g clip-path="url(#clip0_1245_752)">
<path fill-rule="evenodd" clip-rule="evenodd" d="M9.64286 2.52561C9.64286 1.95729 9.41709 1.41224 9.01523 1.01038C8.61336 0.608516 8.06832 0.382751 7.5 0.382751C6.93168 0.382751 6.38663 0.608516 5.98477 1.01038C5.58291 1.41224 5.35714 1.95729 5.35714 2.52561V4.66847H3.21429C2.3618 4.66847 1.54424 5.00711 0.941442 5.60991C0.338647 6.2127 0 7.03027 0 7.88275L0 27.1685C0 28.0209 0.338647 28.8385 0.941442 29.4413C1.54424 30.0441 2.3618 30.3828 3.21429 30.3828H26.7857C27.6382 30.3828 28.4558 30.0441 29.0586 29.4413C29.6614 28.8385 30 28.0209 30 27.1685V7.88275C30 7.03027 29.6614 6.2127 29.0586 5.60991C28.4558 5.00711 27.6382 4.66847 26.7857 4.66847H24.6429V2.52561C24.6429 1.95729 24.4171 1.41224 24.0152 1.01038C23.6134 0.608516 23.0683 0.382751 22.5 0.382751C21.9317 0.382751 21.3866 0.608516 20.9848 1.01038C20.5829 1.41224 20.3571 1.95729 20.3571 2.52561V4.66847H9.64286V2.52561ZM12.7929 12.0142C12.7929 11.5492 13.17 11.1742 13.635 11.1742H16.3671C16.83 11.1742 17.2071 11.5492 17.2071 12.0142V15.357H20.55C21.015 15.357 21.39 15.7342 21.39 16.197V18.9292C21.3903 19.0397 21.3688 19.1491 21.3267 19.2513C21.2846 19.3535 21.2228 19.4463 21.1447 19.5245C21.0667 19.6028 20.974 19.6648 20.8719 19.7072C20.7699 19.7495 20.6605 19.7713 20.55 19.7713H17.2071V23.1142C17.2071 23.337 17.1186 23.5506 16.9611 23.7081C16.8036 23.8657 16.5899 23.9542 16.3671 23.9542H13.6329C13.4101 23.9542 13.1964 23.8657 13.0389 23.7081C12.8814 23.5506 12.7929 23.337 12.7929 23.1142V19.7713H9.45C9.33951 19.7713 9.2301 19.7495 9.12805 19.7072C9.026 19.6648 8.9333 19.6028 8.85527 19.5245C8.77724 19.4463 8.71541 19.3535 8.67332 19.2513C8.63124 19.1491 8.60972 19.0397 8.61 18.9292V16.197C8.61 15.7342 8.985 15.357 9.45 15.357H12.7929V12.0142Z" fill="#A3ACAE"/>
</g>
<defs>
<clipPath id="clip0_1245_752">
<rect width="30" height="30" fill="white" transform="translate(0 0.382751)"/>
</clipPath>
</defs>
</svg>
