<svg width="96" height="96" viewBox="0 0 96 96" fill="none" xmlns="http://www.w3.org/2000/svg">
<path d="M48.3926 89.2232C40.1723 89.2232 32.1366 86.7856 25.3017 82.2186C18.4668 77.6517 13.1396 71.1605 9.99385 63.5659C6.84809 55.9714 6.02501 47.6146 7.62871 39.5522C9.23241 31.4899 13.1909 24.0842 19.0035 18.2715C24.8161 12.4589 32.2218 8.50047 40.2842 6.89678C48.3465 5.29308 56.7033 6.11615 64.2979 9.26192C71.8924 12.4077 78.3836 17.7349 82.9506 24.5698C87.5175 31.4047 89.9551 39.4404 89.9551 47.6607C89.9551 58.6837 85.5762 69.2553 77.7817 77.0498C69.9872 84.8443 59.4157 89.2232 48.3926 89.2232ZM48.3926 12.0357C41.3466 12.0357 34.4589 14.125 28.6004 18.0396C22.7419 21.9541 18.1758 27.518 15.4794 34.0276C12.783 40.5372 12.0775 47.7002 13.4521 54.6108C14.8267 61.5213 18.2197 67.8691 23.2019 72.8513C28.1842 77.8336 34.5319 81.2265 41.4425 82.6011C48.3531 83.9757 55.5161 83.2702 62.0257 80.5739C68.5353 77.8775 74.0992 73.3114 78.0137 67.4529C81.9282 61.5944 84.0176 54.7066 84.0176 47.6607C84.0176 38.2123 80.2643 29.151 73.5833 22.47C66.9023 15.789 57.8409 12.0357 48.3926 12.0357Z" fill="black"/>
<path d="M62.0191 65.4731L45.4238 48.8778V20.9419H51.3613V46.4138L66.2051 61.2872L62.0191 65.4731Z" fill="black"/>
</svg>
