<svg width="30" height="31" viewBox="0 0 30 31" fill="none" xmlns="http://www.w3.org/2000/svg">
<path d="M9.375 10.694C10.3696 10.694 11.3234 10.2989 12.0267 9.59568C12.7299 8.89242 13.125 7.93859 13.125 6.94403C13.125 5.94947 12.7299 4.99564 12.0267 4.29238C11.3234 3.58912 10.3696 3.19403 9.375 3.19403C8.38044 3.19403 7.42661 3.58912 6.72335 4.29238C6.02009 4.99564 5.625 5.94947 5.625 6.94403C5.625 7.93859 6.02009 8.89242 6.72335 9.59568C7.42661 10.2989 8.38044 10.694 9.375 10.694ZM1.875 14.9128C1.875 14.2912 2.12193 13.695 2.56147 13.2555C3.00101 12.816 3.59715 12.569 4.21875 12.569H10.1953C9.96252 13.1667 9.84329 13.8026 9.84375 14.444C9.84375 16.1878 10.7091 17.73 12.0347 18.6628H9.84375C9.15818 18.6627 8.4857 18.8505 7.89943 19.2059C7.31315 19.5613 6.83551 20.0706 6.51844 20.6784C4.72219 20.2162 3.57281 19.3172 2.86312 18.2972C1.875 16.8768 1.875 15.4059 1.875 15.1472V14.9128ZM23.4816 20.6784C25.2778 20.2162 26.4272 19.3172 27.1369 18.2972C28.125 16.8768 28.125 15.405 28.125 15.1472V14.9128C28.125 14.2912 27.8781 13.695 27.4385 13.2555C26.999 12.816 26.4029 12.569 25.7812 12.569H19.8047C20.0316 13.1503 20.1562 13.7822 20.1562 14.444C20.1562 16.1878 19.2909 17.73 17.9653 18.6628H20.1562C20.8418 18.6627 21.5143 18.8505 22.1006 19.2059C22.6868 19.5613 23.1645 20.0706 23.4816 20.6784ZM24.375 6.94403C24.375 7.93859 23.9799 8.89242 23.2766 9.59568C22.5734 10.2989 21.6196 10.694 20.625 10.694C19.6304 10.694 18.6766 10.2989 17.9734 9.59568C17.2701 8.89242 16.875 7.93859 16.875 6.94403C16.875 5.94947 17.2701 4.99564 17.9734 4.29238C18.6766 3.58912 19.6304 3.19403 20.625 3.19403C21.6196 3.19403 22.5734 3.58912 23.2766 4.29238C23.9799 4.99564 24.375 5.94947 24.375 6.94403ZM7.5 22.4128C7.5 21.7912 7.74693 21.195 8.18647 20.7555C8.62601 20.316 9.22215 20.069 9.84375 20.069H20.1562C20.464 20.069 20.7688 20.1297 21.0532 20.2474C21.3375 20.3652 21.5959 20.5379 21.8135 20.7555C22.0312 20.9731 22.2038 21.2315 22.3216 21.5159C22.4394 21.8002 22.5 22.105 22.5 22.4128V22.6472C22.5 22.905 22.5 24.3768 21.5119 25.7972C20.4806 27.2793 18.5213 28.5065 15 28.5065C11.4787 28.5065 9.51937 27.2793 8.48812 25.7972C7.5 24.3768 7.5 22.9059 7.5 22.6472V22.4128ZM15 18.194C15.9946 18.194 16.9484 17.7989 17.6516 17.0957C18.3549 16.3924 18.75 15.4386 18.75 14.444C18.75 13.4495 18.3549 12.4956 17.6516 11.7924C16.9484 11.0891 15.9946 10.694 15 10.694C14.0054 10.694 13.0516 11.0891 12.3483 11.7924C11.6451 12.4956 11.25 13.4495 11.25 14.444C11.25 15.4386 11.6451 16.3924 12.3483 17.0957C13.0516 17.7989 14.0054 18.194 15 18.194Z" fill="#A3ACAE"/>
</svg>
