<svg width="31" height="31" viewBox="0 0 31 31" fill="none" xmlns="http://www.w3.org/2000/svg">
<path d="M5.83594 16.6328H13.3359C13.6675 16.6328 13.9854 16.5011 14.2198 16.2666C14.4542 16.0322 14.5859 15.7143 14.5859 15.3828V5.38275C14.5859 5.05123 14.4542 4.73329 14.2198 4.49887C13.9854 4.26445 13.6675 4.13275 13.3359 4.13275H5.83594C5.50442 4.13275 5.18647 4.26445 4.95205 4.49887C4.71763 4.73329 4.58594 5.05123 4.58594 5.38275V15.3828C4.58594 15.7143 4.71763 16.0322 4.95205 16.2666C5.18647 16.5011 5.50442 16.6328 5.83594 16.6328ZM4.58594 25.3828C4.58594 25.7143 4.71763 26.0322 4.95205 26.2666C5.18647 26.5011 5.50442 26.6328 5.83594 26.6328H13.3359C13.6675 26.6328 13.9854 26.5011 14.2198 26.2666C14.4542 26.0322 14.5859 25.7143 14.5859 25.3828V20.3828C14.5859 20.0512 14.4542 19.7333 14.2198 19.4989C13.9854 19.2644 13.6675 19.1328 13.3359 19.1328H5.83594C5.50442 19.1328 5.18647 19.2644 4.95205 19.4989C4.71763 19.7333 4.58594 20.0512 4.58594 20.3828V25.3828ZM17.0859 25.3828C17.0859 25.7143 17.2176 26.0322 17.4521 26.2666C17.6865 26.5011 18.0044 26.6328 18.3359 26.6328H25.8359C26.1675 26.6328 26.4854 26.5011 26.7198 26.2666C26.9542 26.0322 27.0859 25.7143 27.0859 25.3828V16.6328C27.0859 16.3012 26.9542 15.9833 26.7198 15.7489C26.4854 15.5144 26.1675 15.3828 25.8359 15.3828H18.3359C18.0044 15.3828 17.6865 15.5144 17.4521 15.7489C17.2176 15.9833 17.0859 16.3012 17.0859 16.6328V25.3828ZM18.3359 12.8828H25.8359C26.1675 12.8828 26.4854 12.7511 26.7198 12.5166C26.9542 12.2822 27.0859 11.9643 27.0859 11.6328V5.38275C27.0859 5.05123 26.9542 4.73329 26.7198 4.49887C26.4854 4.26445 26.1675 4.13275 25.8359 4.13275H18.3359C18.0044 4.13275 17.6865 4.26445 17.4521 4.49887C17.2176 4.73329 17.0859 5.05123 17.0859 5.38275V11.6328C17.0859 11.9643 17.2176 12.2822 17.4521 12.5166C17.6865 12.7511 18.0044 12.8828 18.3359 12.8828Z" fill="#A3ACAE"/>
</svg>
