<svg width="21" height="21" viewBox="0 0 21 21" fill="none" xmlns="http://www.w3.org/2000/svg">
<path d="M7.86589 9.53412C6.98183 9.53412 6.13398 9.18293 5.50886 8.55781C4.88374 7.93269 4.53255 7.08484 4.53255 6.20079V3.53412C4.53255 3.35731 4.60279 3.18774 4.72781 3.06271C4.85284 2.93769 5.02241 2.86745 5.19922 2.86745H5.86589C6.0427 2.86745 6.21227 2.79721 6.33729 2.67219C6.46231 2.54717 6.53255 2.3776 6.53255 2.20079C6.53255 2.02397 6.46231 1.85441 6.33729 1.72938C6.21227 1.60436 6.0427 1.53412 5.86589 1.53412H5.19922C4.66879 1.53412 4.16008 1.74483 3.78501 2.11991C3.40993 2.49498 3.19922 3.00369 3.19922 3.53412V6.20079C3.20008 6.95394 3.38373 7.69564 3.73442 8.36217C4.0851 9.02871 4.59234 9.60016 5.21255 10.0275C5.80844 10.5528 6.29169 11.1935 6.63314 11.9107C6.97459 12.628 7.16716 13.407 7.19922 14.2008C7.19922 15.4385 7.69088 16.6254 8.56605 17.5006C9.44122 18.3758 10.6282 18.8675 11.8659 18.8675C13.1036 18.8675 14.2905 18.3758 15.1657 17.5006C16.0409 16.6254 16.5326 15.4385 16.5326 14.2008V13.4408C17.161 13.2785 17.7087 12.8926 18.073 12.3554C18.4372 11.8183 18.5931 11.1667 18.5113 10.5228C18.4295 9.87891 18.1157 9.28696 17.6287 8.8579C17.1417 8.42884 16.5149 8.19213 15.8659 8.19213C15.2168 8.19213 14.5901 8.42884 14.1031 8.8579C13.6161 9.28696 13.3023 9.87891 13.2205 10.5228C13.1387 11.1667 13.2945 11.8183 13.6588 12.3554C14.0231 12.8926 14.5708 13.2785 15.1992 13.4408V14.2008C15.1992 15.0848 14.848 15.9327 14.2229 16.5578C13.5978 17.1829 12.7499 17.5341 11.8659 17.5341C10.9818 17.5341 10.134 17.1829 9.50886 16.5578C8.88374 15.9327 8.53255 15.0848 8.53255 14.2008C8.5663 13.406 8.76095 12.6264 9.10472 11.9091C9.44849 11.1918 9.93423 10.5516 10.5326 10.0275C11.1503 9.59867 11.6549 9.02657 12.0033 8.36013C12.3516 7.69369 12.5332 6.95276 12.5326 6.20079V3.53412C12.5326 3.00369 12.3218 2.49498 11.9468 2.11991C11.5717 1.74483 11.063 1.53412 10.5326 1.53412H9.86589C9.68907 1.53412 9.51951 1.60436 9.39448 1.72938C9.26946 1.85441 9.19922 2.02397 9.19922 2.20079C9.19922 2.3776 9.26946 2.54717 9.39448 2.67219C9.51951 2.79721 9.68907 2.86745 9.86589 2.86745H10.5326C10.7094 2.86745 10.8789 2.93769 11.004 3.06271C11.129 3.18774 11.1992 3.35731 11.1992 3.53412V6.20079C11.1992 6.63853 11.113 7.07198 10.9455 7.4764C10.778 7.88082 10.5324 8.24828 10.2229 8.55781C9.91338 8.86734 9.54592 9.11287 9.1415 9.28038C8.73708 9.4479 8.30363 9.53412 7.86589 9.53412ZM15.8659 12.2008C15.5123 12.2008 15.1731 12.0603 14.9231 11.8103C14.673 11.5602 14.5326 11.2211 14.5326 10.8675C14.5326 10.5138 14.673 10.1747 14.9231 9.92464C15.1731 9.67459 15.5123 9.53412 15.8659 9.53412C16.2195 9.53412 16.5586 9.67459 16.8087 9.92464C17.0587 10.1747 17.1992 10.5138 17.1992 10.8675C17.1992 11.2211 17.0587 11.5602 16.8087 11.8103C16.5586 12.0603 16.2195 12.2008 15.8659 12.2008Z" fill="#202B40"/>
</svg>
