<svg width="31" height="31" viewBox="0 0 31 31" fill="none" xmlns="http://www.w3.org/2000/svg">
<path d="M15.25 15.8815C17.5233 15.8815 19.7035 15.0914 21.3109 13.6848C22.9184 12.2783 23.8214 10.3707 23.8214 8.38153C23.8214 6.39241 22.9184 4.48475 21.3109 3.07823C19.7035 1.67171 17.5233 0.881531 15.25 0.881531C12.9767 0.881531 10.7965 1.67171 9.18908 3.07823C7.58163 4.48475 6.67857 6.39241 6.67857 8.38153C6.67857 10.3707 7.58163 12.2783 9.18908 13.6848C10.7965 15.0914 12.9767 15.8815 15.25 15.8815ZM8.82143 19.1159C3.86607 20.3874 0.25 24.3952 0.25 29.1413C0.25 30.1022 1.14063 30.8815 2.23884 30.8815H28.2612C29.3594 30.8815 30.25 30.1022 30.25 29.1413C30.25 24.3952 26.6339 20.3874 21.6786 19.1159V22.0925C23.5268 22.5085 24.8929 23.9792 24.8929 25.7253V28.069C24.8929 28.5847 24.4107 29.0065 23.8214 29.0065H22.75C22.1607 29.0065 21.6786 28.5847 21.6786 28.069C21.6786 27.5534 22.1607 27.1315 22.75 27.1315V25.7253C22.75 24.6882 21.7924 23.8503 20.6071 23.8503C19.4219 23.8503 18.4643 24.6882 18.4643 25.7253V27.1315C19.0536 27.1315 19.5357 27.5534 19.5357 28.069C19.5357 28.5847 19.0536 29.0065 18.4643 29.0065H17.3929C16.8036 29.0065 16.3214 28.5847 16.3214 28.069V25.7253C16.3214 23.9792 17.6875 22.5085 19.5357 22.0925V18.7468C19.1339 18.7116 18.7254 18.694 18.3103 18.694H12.1897C11.7746 18.694 11.3661 18.7116 10.9643 18.7468V22.5788C12.5112 22.9831 13.6429 24.237 13.6429 25.7253C13.6429 27.5358 11.9621 29.0065 9.89286 29.0065C7.82366 29.0065 6.14286 27.5358 6.14286 25.7253C6.14286 24.237 7.27455 22.9831 8.82143 22.5788V19.1159ZM9.89286 27.1315C10.3191 27.1315 10.7279 26.9834 11.0293 26.7196C11.3307 26.4559 11.5 26.0982 11.5 25.7253C11.5 25.3523 11.3307 24.9946 11.0293 24.7309C10.7279 24.4672 10.3191 24.319 9.89286 24.319C9.46662 24.319 9.05783 24.4672 8.75644 24.7309C8.45504 24.9946 8.28571 25.3523 8.28571 25.7253C8.28571 26.0982 8.45504 26.4559 8.75644 26.7196C9.05783 26.9834 9.46662 27.1315 9.89286 27.1315Z" fill="#A3ACAE"/>
</svg>
