<svg width="25" height="25" viewBox="0 0 25 25" fill="none" xmlns="http://www.w3.org/2000/svg">
<path d="M3.33398 17.8428V20.8828C3.33398 21.1628 3.55398 21.3828 3.83398 21.3828H6.87398C7.00398 21.3828 7.13398 21.3328 7.22398 21.2328L18.144 10.3228L14.394 6.57275L3.48398 17.4828C3.38398 17.5828 3.33398 17.7028 3.33398 17.8428ZM21.044 7.42275C21.1367 7.33024 21.2102 7.22035 21.2604 7.09938C21.3106 6.97841 21.3364 6.84872 21.3364 6.71775C21.3364 6.58679 21.3106 6.4571 21.2604 6.33613C21.2102 6.21516 21.1367 6.10527 21.044 6.01275L18.704 3.67275C18.6115 3.58005 18.5016 3.5065 18.3806 3.45632C18.2596 3.40614 18.13 3.38031 17.999 3.38031C17.868 3.38031 17.7383 3.40614 17.6174 3.45632C17.4964 3.5065 17.3865 3.58005 17.294 3.67275L15.464 5.50275L19.214 9.25275L21.044 7.42275Z" fill="#202B40"/>
</svg>
