<svg width="96" height="96" viewBox="0 0 96 96" fill="none" xmlns="http://www.w3.org/2000/svg">
<path d="M29.3926 61.5163C29.4949 52.8342 32.9894 44.5366 39.129 38.397C45.2686 32.2574 53.5662 28.7629 62.2483 28.6606C61.0383 21.6302 57.2366 15.309 51.5937 10.9447C45.9508 6.5804 38.8767 4.4902 31.768 5.08672C24.6593 5.68324 18.0325 8.92313 13.1958 14.1668C8.35914 19.4105 5.66405 26.2769 5.64258 33.4106C5.64344 40.1459 8.02891 46.6635 12.3762 51.808C16.7234 56.9526 22.7517 60.3919 29.3926 61.5163ZM45.3241 22.2338C45.7693 22.6792 46.0194 23.2832 46.0194 23.9129C46.0194 24.5427 45.7693 25.1467 45.3241 25.5921L31.0741 39.8421C30.8535 40.0632 30.5914 40.2387 30.3028 40.3584C30.0143 40.4782 29.705 40.5398 29.3926 40.5398C29.0802 40.5398 28.7709 40.4782 28.4823 40.3584C28.1938 40.2387 27.9317 40.0632 27.7111 39.8421L20.5861 32.7171C20.3653 32.4962 20.1901 32.2341 20.0706 31.9456C19.9511 31.6571 19.8896 31.3478 19.8896 31.0356C19.8896 30.7233 19.9511 30.4141 20.0706 30.1255C20.1901 29.837 20.3653 29.5749 20.5861 29.3541C20.8069 29.1332 21.069 28.9581 21.3576 28.8386C21.6461 28.7191 21.9553 28.6576 22.2676 28.6576C22.5799 28.6576 22.8891 28.7191 23.1776 28.8386C23.4661 28.9581 23.7283 29.1332 23.9491 29.3541L29.3926 34.8023L41.9611 22.2291C42.1817 22.0079 42.4438 21.8324 42.7323 21.7127C43.0209 21.5929 43.3302 21.5313 43.6426 21.5313C43.955 21.5313 44.2643 21.5929 44.5528 21.7127C44.8414 21.8324 45.1035 22.0126 45.3241 22.2338ZM62.6426 90.4106C70.2012 90.4106 77.4503 87.4079 82.7951 82.0631C88.1399 76.7183 91.1426 69.4692 91.1426 61.9106C91.1426 54.3519 88.1399 47.1028 82.7951 41.758C77.4503 36.4132 70.2012 33.4106 62.6426 33.4106C55.0839 33.4106 47.8348 36.4132 42.49 41.758C37.1452 47.1028 34.1426 54.3519 34.1426 61.9106C34.1426 69.4692 37.1452 76.7183 42.49 82.0631C47.8348 87.4079 55.0839 90.4106 62.6426 90.4106ZM54.8241 50.7291L62.6426 58.5523L70.4611 50.7291C70.907 50.2831 71.5119 50.0326 72.1426 50.0326C72.7733 50.0326 73.3781 50.2831 73.8241 50.7291C74.27 51.175 74.5206 51.7799 74.5206 52.4106C74.5206 53.0412 74.27 53.6461 73.8241 54.0921L66.0008 61.9106L73.8241 69.7291C74.27 70.175 74.5206 70.7799 74.5206 71.4106C74.5206 72.0412 74.27 72.6461 73.8241 73.0921C73.3781 73.538 72.7733 73.7886 72.1426 73.7886C71.5119 73.7886 70.907 73.538 70.4611 73.0921L62.6426 65.2688L54.8241 73.0921C54.3781 73.538 53.7733 73.7886 53.1426 73.7886C52.5119 73.7886 51.907 73.538 51.4611 73.0921C51.0151 72.6461 50.7646 72.0412 50.7646 71.4106C50.7646 70.7799 51.0151 70.175 51.4611 69.7291L59.2843 61.9106L51.4611 54.0921C51.2403 53.8712 51.0651 53.6091 50.9456 53.3206C50.8261 53.0321 50.7646 52.7228 50.7646 52.4106C50.7646 52.0983 50.8261 51.7891 50.9456 51.5005C51.0651 51.212 51.2403 50.9499 51.4611 50.7291C51.6819 50.5082 51.944 50.3331 52.2326 50.2136C52.5211 50.0941 52.8303 50.0326 53.1426 50.0326C53.4549 50.0326 53.7641 50.0941 54.0526 50.2136C54.3411 50.3331 54.6033 50.5082 54.8241 50.7291Z" fill="black"/>
</svg>
