<svg width="73" height="63" viewBox="0 0 73 63" fill="none" xmlns="http://www.w3.org/2000/svg">
<path fill-rule="evenodd" clip-rule="evenodd" d="M67.5641 9.64891L39.1556 36.6602C38.3483 37.4282 37.3329 37.8484 36.2846 37.8484C35.2362 37.8484 34.2208 37.4282 33.4136 36.6602L5.01856 9.64891C4.86621 10.1755 4.78871 10.7267 4.78906 11.2816V52.6149C4.78906 53.9852 5.26317 55.2994 6.10708 56.2683C6.951 57.2372 8.09559 57.7816 9.28906 57.7816H63.2891C64.4825 57.7816 65.6271 57.2372 66.471 56.2683C67.315 55.2994 67.7891 53.9852 67.7891 52.6149V11.2816C67.7909 10.727 67.7149 10.1757 67.5641 9.64891ZM9.28906 0.948242H63.2891C65.676 0.948242 67.9652 2.03693 69.653 3.9748C71.3408 5.91268 72.2891 8.541 72.2891 11.2816V52.6149C72.2891 55.3555 71.3408 57.9838 69.653 59.9217C67.9652 61.8596 65.676 62.9482 63.2891 62.9482H9.28906C6.90211 62.9482 4.61293 61.8596 2.9251 59.9217C1.23727 57.9838 0.289063 55.3555 0.289062 52.6149V11.2816C0.289063 8.541 1.23727 5.91268 2.9251 3.9748C4.61293 2.03693 6.90211 0.948242 9.28906 0.948242ZM8.34406 6.11491L33.4361 29.8971C34.2397 30.6592 35.2488 31.0774 36.2911 31.0802C37.3335 31.083 38.3443 30.6703 39.1511 29.9126L64.4951 6.11491H8.34406Z" fill="black"/>
</svg>
