<svg width="25" height="25" viewBox="0 0 25 25" fill="none" xmlns="http://www.w3.org/2000/svg">
<path d="M18.9785 22.217C19.5089 22.217 20.0177 22.0063 20.3927 21.6313C20.7678 21.2562 20.9785 20.7475 20.9785 20.217V8.21704L14.9785 2.21704H6.97852C6.44808 2.21704 5.93937 2.42775 5.5643 2.80283C5.18923 3.1779 4.97852 3.68661 4.97852 4.21704V20.217C4.97852 20.7475 5.18923 21.2562 5.5643 21.6313C5.93937 22.0063 6.44808 22.217 6.97852 22.217H18.9785ZM13.9785 4.21704L18.9785 9.21704H13.9785V4.21704ZM7.97852 8.21704H10.9785V10.217H7.97852V8.21704ZM7.97852 12.217H17.9785V14.217H7.97852V12.217ZM7.97852 16.217H17.9785V18.217H7.97852V16.217Z" fill="#2751A3"/>
</svg>
