<svg width="96" height="96" viewBox="0 0 96 96" fill="none" xmlns="http://www.w3.org/2000/svg">
<g clip-path="url(#clip0_1015_100)">
<path d="M40.4753 31.8274C36.1211 31.8274 32.3937 30.2771 29.293 27.1764C26.1923 24.0757 24.6419 20.3482 24.6419 15.9941C24.6419 11.6399 26.1923 7.91248 29.293 4.81179C32.3937 1.71109 36.1211 0.160746 40.4753 0.160746C44.8294 0.160746 48.5569 1.71109 51.6576 4.81179C54.7582 7.91248 56.3086 11.6399 56.3086 15.9941C56.3086 20.3482 54.7582 24.0757 51.6576 27.1764C48.5569 30.2771 44.8294 31.8274 40.4753 31.8274ZM64.2253 31.8274C63.4996 31.8274 62.576 31.7456 61.4544 31.582C60.3329 31.4184 59.4093 31.2363 58.6836 31.0357C60.4648 28.9246 61.8344 26.5826 62.7923 24.0097C63.7503 21.4368 64.2279 18.7649 64.2253 15.9941C64.2253 13.2232 63.7463 10.5514 62.7884 7.97845C61.8305 5.40554 60.4622 3.06352 58.6836 0.952413C59.6072 0.622552 60.5308 0.407482 61.4544 0.307204C62.378 0.206927 63.3017 0.158107 64.2253 0.160746C68.5794 0.160746 72.3069 1.71109 75.4076 4.81179C78.5083 7.91248 80.0586 11.6399 80.0586 15.9941C80.0586 20.3482 78.5083 24.0757 75.4076 27.1764C72.3069 30.2771 68.5794 31.8274 64.2253 31.8274ZM76.1003 79.3274C70.6246 79.3274 65.9577 77.3971 62.0996 73.5364C58.2416 69.6757 56.3112 65.0088 56.3086 59.5357C56.3086 53.9941 58.2389 49.3101 62.0996 45.4837C65.9603 41.6573 70.6272 39.7441 76.1003 39.7441C81.6419 39.7441 86.326 41.6573 90.1523 45.4837C93.9787 49.3101 95.8919 53.9941 95.8919 59.5357C95.8919 65.0114 93.9787 69.6796 90.1523 73.5403C86.326 77.401 81.6419 79.33 76.1003 79.3274ZM73.3294 68.442L87.2826 54.3899L84.5117 51.6191L73.3294 62.8014L67.6888 57.1607L64.918 60.0305L73.3294 68.442ZM8.80859 63.4941V52.4107C8.80859 50.1677 9.38651 48.1067 10.5423 46.2278C11.6982 44.3489 13.2314 42.9134 15.1419 41.9212C19.2322 39.876 23.3885 38.3428 27.6107 37.3216C31.8329 36.3003 36.1211 35.7884 40.4753 35.7857C43.444 35.7857 46.3798 36.0167 49.2826 36.4785C52.1853 36.9403 55.0881 37.666 57.9909 38.6555C54.4284 41.7562 51.8555 45.5008 50.2721 49.8893C48.6888 54.2778 48.161 58.8127 48.6888 63.4941H8.80859Z" fill="black"/>
</g>
<defs>
<clipPath id="clip0_1015_100">
<rect width="95" height="95" fill="white" transform="translate(0.892578 0.160645)"/>
</clipPath>
</defs>
</svg>
