<svg width="17" height="17" viewBox="0 0 17 17" fill="none" xmlns="http://www.w3.org/2000/svg">
<g clip-path="url(#clip0_1021_166)">
<path d="M8.39258 0.737305C6.22158 0.737305 5.94858 0.747305 5.09558 0.785305C4.24258 0.825305 3.66158 0.959305 3.15258 1.1573C2.61842 1.35763 2.13472 1.6727 1.73558 2.0803C1.32798 2.47945 1.0129 2.96315 0.812578 3.4973C0.614578 4.0053 0.479578 4.5873 0.440578 5.4373C0.402578 6.2923 0.392578 6.56431 0.392578 8.73831C0.392578 10.9103 0.402578 11.1823 0.440578 12.0353C0.480578 12.8873 0.614578 13.4683 0.812578 13.9773C1.01758 14.5033 1.29058 14.9493 1.73558 15.3943C2.17958 15.8393 2.62558 16.1133 3.15158 16.3173C3.66158 16.5153 4.24158 16.6503 5.09358 16.6893C5.94758 16.7273 6.21958 16.7373 8.39258 16.7373C10.5656 16.7373 10.8366 16.7273 11.6906 16.6893C12.5416 16.6493 13.1246 16.5153 13.6336 16.3173C14.1674 16.1168 14.6507 15.8018 15.0496 15.3943C15.4946 14.9493 15.7676 14.5033 15.9726 13.9773C16.1696 13.4683 16.3046 12.8873 16.3446 12.0353C16.3826 11.1823 16.3926 10.9103 16.3926 8.7373C16.3926 6.5643 16.3826 6.2923 16.3446 5.4383C16.3046 4.5873 16.1696 4.0053 15.9726 3.4973C15.7723 2.96315 15.4572 2.47945 15.0496 2.0803C14.6504 1.6727 14.1667 1.35763 13.6326 1.1573C13.1226 0.959305 12.5406 0.824305 11.6896 0.785305C10.8356 0.747305 10.5646 0.737305 8.39058 0.737305H8.39258ZM7.67558 2.1793H8.39358C10.5296 2.1793 10.7826 2.1863 11.6256 2.2253C12.4056 2.2603 12.8296 2.3913 13.1116 2.5003C13.4846 2.6453 13.7516 2.8193 14.0316 3.0993C14.3116 3.3793 14.4846 3.6453 14.6296 4.0193C14.7396 4.3003 14.8696 4.7243 14.9046 5.5043C14.9436 6.3473 14.9516 6.6003 14.9516 8.7353C14.9516 10.8703 14.9436 11.1243 14.9046 11.9673C14.8696 12.7473 14.7386 13.1703 14.6296 13.4523C14.5004 13.7992 14.2958 14.1131 14.0306 14.3713C13.7506 14.6513 13.4846 14.8243 13.1106 14.9693C12.8306 15.0793 12.4066 15.2093 11.6256 15.2453C10.7826 15.2833 10.5296 15.2923 8.39358 15.2923C6.25758 15.2923 6.00358 15.2833 5.16058 15.2453C4.38058 15.2093 3.95758 15.0793 3.67558 14.9693C3.32841 14.8406 3.01418 14.6363 2.75558 14.3713C2.48985 14.1129 2.28491 13.7987 2.15558 13.4513C2.04658 13.1703 1.91558 12.7463 1.88058 11.9663C1.84258 11.1233 1.83458 10.8703 1.83458 8.7333C1.83458 6.5963 1.84258 6.3453 1.88058 5.5023C1.91658 4.7223 2.04658 4.2983 2.15658 4.0163C2.30158 3.6433 2.47558 3.3763 2.75558 3.0963C3.03558 2.8163 3.30158 2.6433 3.67558 2.4983C3.95758 2.3883 4.38058 2.2583 5.16058 2.2223C5.89858 2.1883 6.18458 2.1783 7.67558 2.1773V2.1793ZM12.6636 3.5073C12.5375 3.5073 12.4127 3.53214 12.2962 3.58038C12.1797 3.62862 12.0739 3.69934 11.9848 3.78848C11.8956 3.87763 11.8249 3.98346 11.7767 4.09993C11.7284 4.2164 11.7036 4.34124 11.7036 4.4673C11.7036 4.59337 11.7284 4.71821 11.7767 4.83468C11.8249 4.95115 11.8956 5.05698 11.9848 5.14613C12.0739 5.23527 12.1797 5.30598 12.2962 5.35423C12.4127 5.40247 12.5375 5.4273 12.6636 5.4273C12.9182 5.4273 13.1624 5.32616 13.3424 5.14613C13.5224 4.96609 13.6236 4.72191 13.6236 4.4673C13.6236 4.2127 13.5224 3.96852 13.3424 3.78848C13.1624 3.60845 12.9182 3.5073 12.6636 3.5073ZM8.39358 4.6293C7.84865 4.6208 7.30747 4.72079 6.80156 4.92345C6.29564 5.1261 5.83509 5.42738 5.44673 5.80973C5.05836 6.19208 4.74994 6.64787 4.53942 7.15056C4.3289 7.65326 4.22048 8.19281 4.22048 8.7378C4.22048 9.2828 4.3289 9.82235 4.53942 10.325C4.74994 10.8277 5.05836 11.2835 5.44673 11.6659C5.83509 12.0482 6.29564 12.3495 6.80156 12.5522C7.30747 12.7548 7.84865 12.8548 8.39358 12.8463C9.47212 12.8295 10.5008 12.3892 11.2576 11.6206C12.0143 10.8519 12.4385 9.81648 12.4385 8.7378C12.4385 7.65913 12.0143 6.62372 11.2576 5.85505C10.5008 5.08639 9.47212 4.64613 8.39358 4.6293ZM8.39358 6.0703C8.74381 6.0703 9.09062 6.13929 9.4142 6.27332C9.73777 6.40735 10.0318 6.6038 10.2794 6.85145C10.5271 7.0991 10.7235 7.39311 10.8576 7.71669C10.9916 8.04026 11.0606 8.38707 11.0606 8.7373C11.0606 9.08754 10.9916 9.43435 10.8576 9.75792C10.7235 10.0815 10.5271 10.3755 10.2794 10.6232C10.0318 10.8708 9.73777 11.0673 9.4142 11.2013C9.09062 11.3353 8.74381 11.4043 8.39358 11.4043C7.68625 11.4043 7.00788 11.1233 6.50772 10.6232C6.00756 10.123 5.72658 9.44464 5.72658 8.7373C5.72658 8.02997 6.00756 7.35161 6.50772 6.85145C7.00788 6.35129 7.68625 6.0703 8.39358 6.0703Z" fill="#202B40"/>
</g>
<defs>
<clipPath id="clip0_1021_166">
<rect width="16" height="16" fill="white" transform="translate(0.392578 0.737305)"/>
</clipPath>
</defs>
</svg>
