<svg width="73" height="63" viewBox="0 0 73 63" fill="none" xmlns="http://www.w3.org/2000/svg">
<path d="M9.33594 27.386L11.5769 27.2206C11.5253 26.7244 11.2536 26.2644 10.8184 25.9361C10.3832 25.6078 9.81786 25.4366 9.23982 25.4578C8.66178 25.4791 8.11547 25.6913 7.71437 26.0504C7.31327 26.4094 7.08821 26.8877 7.08594 27.386H9.33594ZM61.0439 32.0954L58.9259 42.6354L63.3629 43.2967L65.4779 32.7567L61.0439 32.0954ZM40.0709 55.844H26.1239V59.719H40.0709V55.844ZM23.3909 53.6817L20.9549 29.4165L16.4699 29.7497L18.9089 54.015L23.3909 53.6817ZM58.9259 42.6354C57.4049 50.2045 49.4789 55.844 40.0709 55.844V59.719C51.5489 59.719 61.4489 52.824 63.3629 43.2967L58.9259 42.6354ZM40.1009 14.1231L38.1119 24.5727L42.5519 25.1979L44.5409 14.7509L40.1009 14.1231ZM21.8999 27.417L26.2169 24.2136L23.2769 21.279L18.9659 24.4823L21.8999 27.417ZM34.0679 13.7925L35.4959 9.05462L31.1399 8.08329L29.7119 12.8185L34.0679 13.7925ZM37.6499 8.12462L38.0849 8.24604L39.4619 4.55704L39.0269 4.43562L37.6499 8.12462ZM31.9049 18.5561C32.8421 17.0474 33.5681 15.4484 34.0679 13.7925L29.7119 12.8185C29.3018 14.179 28.7056 15.4928 27.9359 16.7323L31.9049 18.5561ZM38.0849 8.24604C38.513 8.35775 38.9013 8.56077 39.2139 8.83626C39.5265 9.11175 39.7532 9.45078 39.8729 9.82187L44.2289 8.85054C43.919 7.84692 43.3194 6.92707 42.486 6.17643C41.6526 5.4258 40.6123 4.86875 39.4619 4.55704L38.0849 8.24604ZM35.4959 9.05462C35.5557 8.86855 35.6618 8.69591 35.8069 8.5487C35.952 8.40149 36.1325 8.28322 36.3359 8.20212L34.3829 4.71204C32.7869 5.37337 31.5869 6.59787 31.1399 8.08329L35.4959 9.05462ZM36.3359 8.20212C36.7465 8.03325 37.2164 8.00554 37.6499 8.12462L39.0269 4.43562C37.4949 4.01278 35.8329 4.1117 34.3829 4.71204L36.3359 8.20212ZM42.7979 29.3235H58.3379V25.4485H42.7979V29.3235ZM14.4929 56.247L11.5769 27.2206L7.09494 27.5539L10.0049 56.5802L14.4929 56.247ZM11.5859 56.5234V27.386H7.08594V56.5234H11.5859ZM10.0049 56.5802C9.99578 56.4863 10.0124 56.3918 10.0479 56.3027C10.0835 56.2136 10.1401 56.1318 10.2143 56.0626C10.2885 55.9934 10.3786 55.9382 10.4789 55.9005C10.5792 55.8629 10.6875 55.8436 10.7969 55.844V59.719C12.9749 59.719 14.6789 58.1121 14.4929 56.247L10.0049 56.5802ZM44.5409 14.7509C44.9151 12.7868 44.8089 10.7772 44.2289 8.85054L39.8729 9.82445C40.2958 11.228 40.3734 12.6922 40.1009 14.1231L44.5409 14.7509ZM26.1239 55.844C25.437 55.8429 24.7754 55.6204 24.2695 55.2201C23.7636 54.8199 23.4502 54.2711 23.3909 53.6817L18.9089 54.015C19.065 55.5705 19.8926 57.0192 21.2283 58.0752C22.5639 59.1311 24.3107 59.7176 26.1239 59.719V55.844ZM26.2169 24.2136C28.2569 22.6998 30.4529 20.8992 31.9079 18.5561L27.9359 16.7323C26.8979 18.4089 25.2449 19.822 23.2769 21.279L26.2169 24.2136ZM65.4779 32.7567C65.6586 31.8603 65.6094 30.9406 65.3339 30.0623C65.0583 29.1839 64.5631 28.368 63.8829 27.6718C63.2027 26.9756 62.354 26.4158 61.3961 26.0318C60.4383 25.6477 59.3945 25.4486 58.3379 25.4485V29.3235C60.0389 29.3235 61.3379 30.6461 61.0439 32.0954L65.4779 32.7567ZM10.7969 55.844C11.2349 55.844 11.5859 56.1488 11.5859 56.5234H7.08594C7.08594 58.2852 8.74494 59.719 10.7969 59.719V55.844ZM38.1119 24.5727C38.0001 25.158 38.0375 25.7573 38.2215 26.329C38.4055 26.9006 38.7317 27.4309 39.1775 27.8832C39.6234 28.3354 40.1781 28.6987 40.8033 28.9478C41.4284 29.197 42.1091 29.3235 42.7979 29.3235V25.4485C42.7613 25.4486 42.7251 25.4444 42.6919 25.4311C42.6587 25.4178 42.6294 25.3984 42.6059 25.3742C42.5824 25.35 42.5654 25.3217 42.556 25.2912C42.5467 25.2607 42.5453 25.2289 42.5519 25.1979L38.1119 24.5727ZM20.9549 29.4165C20.9179 29.0423 20.9815 28.666 21.1463 28.3184C21.3111 27.9708 21.5694 27.6618 21.8999 27.417L18.9599 24.4797C18.09 25.1256 17.4106 25.9402 16.9777 26.8564C16.5448 27.7726 16.3708 28.7643 16.4699 29.7497L20.9549 29.4165Z" fill="black"/>
</svg>
