<svg width="31" height="31" viewBox="0 0 31 31" fill="none" xmlns="http://www.w3.org/2000/svg">
<path d="M27.4592 30.967H24.9542C24.1585 30.967 23.3954 30.6659 22.8328 30.1301C22.2702 29.5943 21.9541 28.8676 21.9541 28.1098V20.4384C21.9675 20.1376 21.872 19.8414 21.6836 19.5996C21.4952 19.3578 21.2253 19.1849 20.9191 19.1099C20.7409 19.084 20.559 19.0949 20.3857 19.1417C20.2123 19.1885 20.0515 19.2702 19.9141 19.3813C19.7727 19.4956 19.6592 19.6379 19.5814 19.7982C19.5037 19.9586 19.4637 20.1332 19.4641 20.3098V28.1098C19.4641 28.8676 19.148 29.5943 18.5854 30.1301C18.0228 30.6659 17.2597 30.967 16.4641 30.967H13.959C13.1634 30.967 12.4003 30.6659 11.8377 30.1301C11.2751 29.5943 10.959 28.8676 10.959 28.1098V20.3098C10.959 19.0904 11.2112 17.883 11.7012 16.7564C12.1912 15.6298 12.9093 14.6061 13.8147 13.7439C14.7201 12.8816 15.795 12.1976 16.9779 11.731C18.1608 11.2644 19.4287 11.0242 20.7091 11.0242C21.9895 11.0242 23.2574 11.2644 24.4403 11.731C25.6232 12.1976 26.6981 12.8816 27.6035 13.7439C28.5089 14.6061 29.227 15.6298 29.717 16.7564C30.207 17.883 30.4592 19.0904 30.4592 20.3098V28.1098C30.4592 28.8676 30.1431 29.5943 29.5805 30.1301C29.0179 30.6659 28.2548 30.967 27.4592 30.967ZM20.7091 16.2384C20.9439 16.2243 21.1793 16.2243 21.4141 16.2384C22.4212 16.4229 23.3279 16.9392 23.9752 17.6968C24.6225 18.4543 24.9691 19.4047 24.9542 20.3813V28.1098H27.4592V20.3098C27.4592 18.6049 26.748 16.9698 25.4821 15.7642C24.2162 14.5586 22.4993 13.8813 20.7091 13.8813C18.9189 13.8813 17.202 14.5586 15.9361 15.7642C14.6702 16.9698 13.959 18.6049 13.959 20.3098V28.1098H16.4641V20.3098C16.464 19.235 16.9103 18.2037 17.7056 17.441C18.5008 16.6783 19.5805 16.246 20.7091 16.2384Z" fill="#202B40"/>
<path d="M6.45906 30.9671H3.45902C2.66336 30.9671 1.90029 30.6661 1.33767 30.1303C0.775059 29.5944 0.458984 28.8677 0.458984 28.11V13.8243C0.458984 13.0665 0.775059 12.3398 1.33767 11.804C1.90029 11.2682 2.66336 10.9672 3.45902 10.9672H6.45906C7.25472 10.9672 8.01779 11.2682 8.5804 11.804C9.14302 12.3398 9.45909 13.0665 9.45909 13.8243V28.11C9.45909 28.8677 9.14302 29.5944 8.5804 30.1303C8.01779 30.6661 7.25472 30.9671 6.45906 30.9671ZM3.45902 13.8243V28.11H6.45906V13.8243H3.45902Z" fill="#202B40"/>
<path d="M4.95904 9.53844C4.06901 9.53844 3.19897 9.28709 2.45894 8.81617C1.71891 8.34525 1.14213 7.67592 0.801533 6.89281C0.460934 6.1097 0.371818 5.24799 0.545454 4.41664C0.719089 3.5853 1.14768 2.82166 1.77702 2.22229C2.40637 1.62293 3.2082 1.21476 4.08112 1.04939C4.95405 0.884027 5.85886 0.968898 6.68114 1.29327C7.50341 1.61765 8.20623 2.16696 8.7007 2.87174C9.19517 3.57651 9.4591 4.40511 9.4591 5.25274C9.4591 6.38938 8.98498 7.47946 8.14106 8.28319C7.29714 9.08691 6.15253 9.53844 4.95904 9.53844ZM4.95904 3.82418C4.66237 3.82418 4.37235 3.90796 4.12568 4.06493C3.879 4.22191 3.68674 4.44502 3.5732 4.70605C3.45967 4.96709 3.42997 5.25433 3.48785 5.53144C3.54572 5.80856 3.68859 6.0631 3.89837 6.26289C4.10815 6.46268 4.37543 6.59874 4.6664 6.65386C4.95738 6.70898 5.25898 6.68069 5.53307 6.57256C5.80717 6.46444 6.04144 6.28134 6.20626 6.04641C6.37108 5.81148 6.45906 5.53529 6.45906 5.25274C6.45906 4.87386 6.30102 4.5105 6.01971 4.24259C5.73841 3.97468 5.35687 3.82418 4.95904 3.82418Z" fill="#202B40"/>
</svg>
