<svg width="67" height="67" viewBox="0 0 67 67" fill="none" xmlns="http://www.w3.org/2000/svg">
<path d="M33.2974 37.0482C39.7492 37.0482 44.9795 32.8845 44.9795 27.7482C44.9795 22.612 39.7492 18.4482 33.2974 18.4482C26.8455 18.4482 21.6152 22.612 21.6152 27.7482C21.6152 32.8845 26.8455 37.0482 33.2974 37.0482Z" stroke="black" stroke-width="4" stroke-linecap="round" stroke-linejoin="round"/>
<path d="M33.2969 2.94824C25.0348 2.94824 17.111 5.56109 11.2688 10.212C5.42664 14.8629 2.14453 21.1709 2.14453 27.7482C2.14453 33.6134 3.70994 37.4512 7.9856 41.6982L33.2969 64.9482L58.6082 41.6982C62.8838 37.4512 64.4492 33.6134 64.4492 27.7482C64.4492 21.1709 61.1671 14.8629 55.3249 10.212C49.4827 5.56109 41.559 2.94824 33.2969 2.94824Z" stroke="black" stroke-width="4" stroke-linecap="round" stroke-linejoin="round"/>
</svg>
