<svg width="21" height="21" viewBox="0 0 21 21" fill="none" xmlns="http://www.w3.org/2000/svg">
<path d="M10.5332 9.36743H10.5415V9.37577H10.5332V9.36743Z" stroke="#202B40" stroke-width="3.75" stroke-linejoin="round"/>
<path d="M10.5325 18.5341L15.1158 13.9508C16.0222 13.0443 16.6395 11.8894 16.8896 10.6321C17.1397 9.37474 17.0113 8.07151 16.5207 6.88716C16.0301 5.70281 15.1993 4.69053 14.1334 3.97832C13.0675 3.26612 11.8144 2.88599 10.5325 2.88599C9.25051 2.88599 7.99736 3.26612 6.93146 3.97832C5.86556 4.69053 5.03479 5.70281 4.5442 6.88716C4.05361 8.07151 3.92523 9.37474 4.17531 10.6321C4.42538 11.8894 5.04267 13.0443 5.94912 13.9508L10.5325 18.5341Z" stroke="#202B40" stroke-width="2.5" stroke-linejoin="round"/>
</svg>
