<svg width="30" height="31" viewBox="0 0 30 31" fill="none" xmlns="http://www.w3.org/2000/svg">
<path d="M12.5 10.8815V8.38153C12.5 7.71849 12.7634 7.0826 13.2322 6.61376C13.7011 6.14492 14.337 5.88153 15 5.88153H23.75C24.413 5.88153 25.0489 6.14492 25.5178 6.61376C25.9866 7.0826 26.25 7.71849 26.25 8.38153V23.3815C26.25 24.0446 25.9866 24.6805 25.5178 25.1493C25.0489 25.6181 24.413 25.8815 23.75 25.8815H15C14.337 25.8815 13.7011 25.6181 13.2322 25.1493C12.7634 24.6805 12.5 24.0446 12.5 23.3815V20.8815" stroke="#A3ACAE" stroke-width="2" stroke-linecap="round" stroke-linejoin="round"/>
<path d="M18.75 15.8815H3.75M3.75 15.8815L7.5 12.1315M3.75 15.8815L7.5 19.6315" stroke="#A3ACAE" stroke-width="2" stroke-linecap="round" stroke-linejoin="round"/>
</svg>
