<svg width="267" height="194" viewBox="0 0 267 194" fill="none" xmlns="http://www.w3.org/2000/svg">
<mask id="path-1-inside-1_1261_791" fill="white">
<path fill-rule="evenodd" clip-rule="evenodd" d="M195.677 13.409C212.258 29.9906 212.258 56.8748 195.677 73.4564C194.216 74.9175 192.674 76.2498 191.068 77.4534L133.051 135.469L74.422 76.84C73.6922 76.2032 72.979 75.5373 72.2839 74.8422C55.7022 58.2605 55.7022 31.3764 72.2839 14.7947C88.8655 -1.78694 115.75 -1.78694 132.331 14.7947C132.572 15.0356 132.81 15.2786 133.043 15.5238L133.053 15.5147L133.378 15.84C134.091 15.0079 134.841 14.1968 135.629 13.409C152.211 -3.17269 179.095 -3.17269 195.677 13.409Z"/>
</mask>
<path d="M195.677 73.4564L199.212 76.9919L199.212 76.9919L195.677 73.4564ZM195.677 13.409L199.212 9.87342L199.212 9.87342L195.677 13.409ZM191.068 77.4534L188.07 73.4514L187.784 73.6654L187.532 73.9179L191.068 77.4534ZM133.051 135.469L129.516 139.005L133.051 142.541L136.587 139.005L133.051 135.469ZM74.422 76.84L77.9575 73.3045L77.8374 73.1844L77.7094 73.0727L74.422 76.84ZM72.2839 74.8422L75.8194 71.3066L75.8194 71.3066L72.2839 74.8422ZM72.2839 14.7947L68.7484 11.2592L72.2839 14.7947ZM132.331 14.7947L135.867 11.2592L135.867 11.2592L132.331 14.7947ZM133.043 15.5238L129.426 18.9751L132.959 22.6791L136.579 19.0593L133.043 15.5238ZM133.053 15.5147L136.588 11.9792L133.053 8.44362L129.517 11.9792L133.053 15.5147ZM133.378 15.84L129.842 19.3755L133.661 23.1943L137.175 19.0932L133.378 15.84ZM135.629 13.409L132.094 9.87342L132.094 9.87343L135.629 13.409ZM199.212 76.9919C217.746 58.4577 217.746 28.4077 199.212 9.87342L192.141 16.9445C206.77 31.5735 206.77 55.2918 192.141 69.9209L199.212 76.9919ZM194.065 81.4553C195.862 80.1097 197.582 78.6216 199.212 76.9919L192.141 69.9209C190.849 71.2134 189.487 72.3899 188.07 73.4514L194.065 81.4553ZM187.532 73.9179L129.516 131.934L136.587 139.005L194.603 80.9889L187.532 73.9179ZM136.587 131.934L77.9575 73.3045L70.8864 80.3756L129.516 139.005L136.587 131.934ZM68.7484 78.3777C69.5236 79.1529 70.3195 79.8962 71.1346 80.6074L77.7094 73.0727C77.0648 72.5103 76.4344 71.9216 75.8194 71.3066L68.7484 78.3777ZM68.7484 11.2592C50.2141 29.7934 50.2141 59.8434 68.7484 78.3777L75.8194 71.3066C61.1904 56.6776 61.1904 32.9593 75.8194 18.3302L68.7484 11.2592ZM135.867 11.2592C117.333 -7.27509 87.2826 -7.2751 68.7484 11.2592L75.8194 18.3302C90.4484 3.70122 114.167 3.70122 128.796 18.3302L135.867 11.2592ZM136.661 12.0725C136.4 11.799 136.136 11.5278 135.867 11.2592L128.796 18.3302C129.009 18.5434 129.219 18.7583 129.426 18.9751L136.661 12.0725ZM136.579 19.0593L136.588 19.0502L129.517 11.9792L129.508 11.9883L136.579 19.0593ZM129.517 19.0502L129.842 19.3755L136.913 12.3045L136.588 11.9792L129.517 19.0502ZM132.094 9.87343C131.215 10.7521 130.377 11.6573 129.581 12.5868L137.175 19.0932C137.804 18.3584 138.468 17.6415 139.165 16.9445L132.094 9.87343ZM199.212 9.87342C180.678 -8.66085 150.628 -8.66085 132.094 9.87342L139.165 16.9445C153.794 2.31546 177.512 2.31546 192.141 16.9445L199.212 9.87342Z" fill="#036C53" mask="url(#path-1-inside-1_1261_791)"/>
<path d="M116.219 60.5905C117.599 60.5766 118.707 59.446 118.693 58.0654C118.679 56.6847 117.549 55.5768 116.168 55.5908L116.219 60.5905ZM99.4217 60.7602L116.219 60.5905L116.168 55.5908L99.3712 55.7605L99.4217 60.7602Z" fill="#036C53"/>
<path d="M116.262 58.0908L119.885 50.8512" stroke="#036C53" stroke-width="5" stroke-linecap="round"/>
<path d="M119.953 50.9475L131.836 75.0485" stroke="#036C53" stroke-width="5" stroke-linecap="round"/>
<path d="M131.836 75.0486L143.633 39.5526" stroke="#036C53" stroke-width="5" stroke-linecap="round"/>
<path d="M143.633 39.5526L150.451 59.5093" stroke="#036C53" stroke-width="5" stroke-linecap="round"/>
<path d="M150.425 57.0094C149.044 57.024 147.937 58.155 147.951 59.5356C147.966 60.9162 149.097 62.0237 150.477 62.0091L150.425 57.0094ZM150.477 62.0091L167.401 61.8309L167.349 56.8312L150.425 57.0094L150.477 62.0091Z" fill="#036C53"/>
<path d="M32.1758 145.649L20.5273 179.915H12.6055L0.980469 145.649H8.31641L14.7617 166.04C14.8711 166.383 15.0508 167.032 15.3008 167.985C15.5508 168.922 15.8008 169.922 16.0508 170.985C16.3164 172.032 16.4961 172.899 16.5898 173.586C16.6836 172.899 16.8477 172.032 17.082 170.985C17.332 169.938 17.5742 168.946 17.8086 168.008C18.0586 167.055 18.2383 166.399 18.3477 166.04L24.8398 145.649H32.1758ZM46.7539 153.219C49.1758 153.219 51.2617 153.688 53.0117 154.625C54.7617 155.547 56.1133 156.891 57.0664 158.657C58.0195 160.422 58.4961 162.579 58.4961 165.125V168.594H41.5977C41.6758 170.61 42.2773 172.196 43.4023 173.352C44.543 174.493 46.1211 175.063 48.1367 175.063C49.8086 175.063 51.3398 174.891 52.7305 174.547C54.1211 174.204 55.5508 173.688 57.0195 173V178.532C55.7227 179.172 54.3633 179.641 52.9414 179.938C51.5352 180.235 49.8242 180.383 47.8086 180.383C45.1836 180.383 42.8555 179.899 40.8242 178.93C38.8086 177.961 37.2227 176.485 36.0664 174.5C34.9258 172.516 34.3555 170.016 34.3555 167C34.3555 163.938 34.8711 161.391 35.9023 159.36C36.9492 157.313 38.4023 155.782 40.2617 154.766C42.1211 153.735 44.2852 153.219 46.7539 153.219ZM46.8008 158.305C45.4102 158.305 44.2539 158.75 43.332 159.641C42.4258 160.532 41.9023 161.93 41.7617 163.836H51.793C51.7773 162.774 51.582 161.829 51.207 161C50.8477 160.172 50.3008 159.516 49.5664 159.032C48.8477 158.547 47.9258 158.305 46.8008 158.305ZM78.9336 153.219C79.293 153.219 79.707 153.243 80.1758 153.29C80.6602 153.321 81.0508 153.368 81.3477 153.43L80.8086 160.133C80.5742 160.055 80.2383 160 79.8008 159.969C79.3789 159.922 79.0117 159.899 78.6992 159.899C77.7773 159.899 76.8789 160.016 76.0039 160.25C75.1445 160.485 74.3711 160.868 73.6836 161.399C72.9961 161.915 72.4492 162.602 72.043 163.461C71.6523 164.305 71.457 165.344 71.457 166.579V179.915H64.3086V153.711H69.7227L70.7773 158.118H71.1289C71.6445 157.227 72.2852 156.415 73.0508 155.68C73.832 154.93 74.7148 154.336 75.6992 153.899C76.6992 153.446 77.7773 153.219 78.9336 153.219ZM93.2539 153.711V179.915H86.1055V153.711H93.2539ZM89.6914 143.446C90.7539 143.446 91.668 143.696 92.4336 144.196C93.1992 144.68 93.582 145.594 93.582 146.938C93.582 148.266 93.1992 149.188 92.4336 149.704C91.668 150.204 90.7539 150.454 89.6914 150.454C88.6133 150.454 87.6914 150.204 86.9258 149.704C86.1758 149.188 85.8008 148.266 85.8008 146.938C85.8008 145.594 86.1758 144.68 86.9258 144.196C87.6914 143.696 88.6133 143.446 89.6914 143.446ZM121.543 180.383C118.621 180.383 116.238 179.243 114.395 176.961C112.566 174.665 111.652 171.297 111.652 166.86C111.652 162.375 112.582 158.985 114.441 156.688C116.301 154.375 118.73 153.219 121.73 153.219C122.98 153.219 124.082 153.391 125.035 153.735C125.988 154.079 126.809 154.54 127.496 155.118C128.199 155.696 128.793 156.344 129.277 157.063H129.512C129.418 156.563 129.301 155.829 129.16 154.86C129.035 153.875 128.973 152.868 128.973 151.836V143.446H136.145V179.915H130.66L129.277 176.516H128.973C128.52 177.235 127.949 177.891 127.262 178.485C126.59 179.063 125.785 179.524 124.848 179.868C123.91 180.211 122.809 180.383 121.543 180.383ZM124.051 174.688C126.004 174.688 127.379 174.11 128.176 172.954C128.988 171.782 129.418 170.024 129.465 167.68V166.907C129.465 164.36 129.074 162.415 128.293 161.071C127.512 159.711 126.059 159.032 123.934 159.032C122.355 159.032 121.121 159.711 120.23 161.071C119.34 162.43 118.895 164.391 118.895 166.954C118.895 169.516 119.34 171.446 120.23 172.743C121.137 174.04 122.41 174.688 124.051 174.688ZM167.434 166.766C167.434 168.954 167.137 170.891 166.543 172.579C165.965 174.266 165.113 175.696 163.988 176.868C162.879 178.024 161.535 178.899 159.957 179.493C158.395 180.086 156.629 180.383 154.66 180.383C152.816 180.383 151.121 180.086 149.574 179.493C148.043 178.899 146.707 178.024 145.566 176.868C144.441 175.696 143.566 174.266 142.941 172.579C142.332 170.891 142.027 168.954 142.027 166.766C142.027 163.86 142.543 161.399 143.574 159.383C144.605 157.368 146.074 155.836 147.98 154.79C149.887 153.743 152.16 153.219 154.801 153.219C157.254 153.219 159.426 153.743 161.316 154.79C163.223 155.836 164.715 157.368 165.793 159.383C166.887 161.399 167.434 163.86 167.434 166.766ZM149.316 166.766C149.316 168.485 149.504 169.93 149.879 171.102C150.254 172.274 150.84 173.157 151.637 173.75C152.434 174.344 153.473 174.641 154.754 174.641C156.02 174.641 157.043 174.344 157.824 173.75C158.621 173.157 159.199 172.274 159.559 171.102C159.934 169.93 160.121 168.485 160.121 166.766C160.121 165.032 159.934 163.594 159.559 162.454C159.199 161.297 158.621 160.43 157.824 159.852C157.027 159.274 155.988 158.985 154.707 158.985C152.816 158.985 151.441 159.633 150.582 160.93C149.738 162.227 149.316 164.172 149.316 166.766ZM183.98 180.383C181.387 180.383 179.176 179.915 177.348 178.977C175.52 178.024 174.129 176.555 173.176 174.571C172.223 172.586 171.746 170.047 171.746 166.954C171.746 163.75 172.285 161.141 173.363 159.125C174.457 157.094 175.965 155.602 177.887 154.649C179.824 153.696 182.066 153.219 184.613 153.219C186.426 153.219 187.988 153.399 189.301 153.758C190.629 154.102 191.785 154.516 192.77 155L190.66 160.532C189.535 160.079 188.488 159.711 187.52 159.43C186.551 159.133 185.582 158.985 184.613 158.985C183.363 158.985 182.324 159.282 181.496 159.875C180.668 160.454 180.051 161.329 179.645 162.5C179.238 163.672 179.035 165.141 179.035 166.907C179.035 168.641 179.254 170.079 179.691 171.219C180.129 172.36 180.762 173.211 181.59 173.774C182.418 174.321 183.426 174.594 184.613 174.594C186.098 174.594 187.418 174.399 188.574 174.008C189.73 173.602 190.855 173.04 191.949 172.321V178.438C190.855 179.125 189.707 179.618 188.504 179.915C187.316 180.227 185.809 180.383 183.98 180.383ZM209.082 174.688C209.863 174.688 210.621 174.61 211.355 174.454C212.105 174.297 212.848 174.102 213.582 173.868V179.188C212.816 179.532 211.863 179.813 210.723 180.032C209.598 180.266 208.363 180.383 207.02 180.383C205.457 180.383 204.051 180.133 202.801 179.633C201.566 179.118 200.59 178.235 199.871 176.985C199.168 175.719 198.816 173.961 198.816 171.711V159.079H195.395V156.055L199.332 153.665L201.395 148.133H205.965V153.711H213.301V159.079H205.965V171.711C205.965 172.711 206.246 173.461 206.809 173.961C207.387 174.446 208.145 174.688 209.082 174.688ZM242.715 166.766C242.715 168.954 242.418 170.891 241.824 172.579C241.246 174.266 240.395 175.696 239.27 176.868C238.16 178.024 236.816 178.899 235.238 179.493C233.676 180.086 231.91 180.383 229.941 180.383C228.098 180.383 226.402 180.086 224.855 179.493C223.324 178.899 221.988 178.024 220.848 176.868C219.723 175.696 218.848 174.266 218.223 172.579C217.613 170.891 217.309 168.954 217.309 166.766C217.309 163.86 217.824 161.399 218.855 159.383C219.887 157.368 221.355 155.836 223.262 154.79C225.168 153.743 227.441 153.219 230.082 153.219C232.535 153.219 234.707 153.743 236.598 154.79C238.504 155.836 239.996 157.368 241.074 159.383C242.168 161.399 242.715 163.86 242.715 166.766ZM224.598 166.766C224.598 168.485 224.785 169.93 225.16 171.102C225.535 172.274 226.121 173.157 226.918 173.75C227.715 174.344 228.754 174.641 230.035 174.641C231.301 174.641 232.324 174.344 233.105 173.75C233.902 173.157 234.48 172.274 234.84 171.102C235.215 169.93 235.402 168.485 235.402 166.766C235.402 165.032 235.215 163.594 234.84 162.454C234.48 161.297 233.902 160.43 233.105 159.852C232.309 159.274 231.27 158.985 229.988 158.985C228.098 158.985 226.723 159.633 225.863 160.93C225.02 162.227 224.598 164.172 224.598 166.766ZM263.246 153.219C263.605 153.219 264.02 153.243 264.488 153.29C264.973 153.321 265.363 153.368 265.66 153.43L265.121 160.133C264.887 160.055 264.551 160 264.113 159.969C263.691 159.922 263.324 159.899 263.012 159.899C262.09 159.899 261.191 160.016 260.316 160.25C259.457 160.485 258.684 160.868 257.996 161.399C257.309 161.915 256.762 162.602 256.355 163.461C255.965 164.305 255.77 165.344 255.77 166.579V179.915H248.621V153.711H254.035L255.09 158.118H255.441C255.957 157.227 256.598 156.415 257.363 155.68C258.145 154.93 259.027 154.336 260.012 153.899C261.012 153.446 262.09 153.219 263.246 153.219Z" fill="#01272A"/>
</svg>
