<svg width="117" height="118" viewBox="0 0 117 118" fill="none" xmlns="http://www.w3.org/2000/svg">
<path d="M41.9246 80.2221C37.6677 84.1461 32.0581 86.2716 26.2697 86.1538C20.4813 86.036 14.9628 83.6842 10.8689 79.5903C6.77507 75.4965 4.42318 69.9779 4.30543 64.1896C4.18767 58.4012 6.31317 52.7916 10.2371 48.5346L48.2621 10.5096C52.5191 6.58563 58.1287 4.46013 63.9171 4.57789C69.7055 4.69564 75.224 7.04753 79.3178 11.1414C83.4117 15.2352 85.7636 20.7538 85.8813 26.5421C85.9991 32.3305 83.8736 37.9401 79.9496 42.1971M29.2448 29.5172L49.9635 50.236" stroke="black" stroke-width="5" stroke-linecap="round" stroke-linejoin="round"/>
<path d="M84.0938 73.397V95.3345M73.1251 84.3657H95.0626M113.344 77.0532C113.36 85.5674 110.47 93.8321 105.151 100.481C99.8326 107.129 92.4039 111.763 84.0938 113.616C75.7837 111.763 68.355 107.129 63.0363 100.481C57.7175 93.8321 54.8274 85.5674 54.8438 77.0532V66.0845C54.8438 64.1451 55.6142 62.2851 56.9856 60.9138C58.357 59.5424 60.2169 58.772 62.1563 58.772H106.031C107.971 58.772 109.831 59.5424 111.202 60.9138C112.573 62.2851 113.344 64.1451 113.344 66.0845V77.0532Z" stroke="black" stroke-width="5" stroke-linecap="round" stroke-linejoin="round"/>
</svg>
