<svg width="21" height="21" viewBox="0 0 21 21" fill="none" xmlns="http://www.w3.org/2000/svg">
<path d="M13.6582 10.2008C13.6582 10.8189 13.4749 11.4231 13.1315 11.937C12.7882 12.4509 12.3001 12.8514 11.7291 13.0879C11.1581 13.3245 10.5297 13.3863 9.92355 13.2658C9.31736 13.1452 8.76053 12.8476 8.32349 12.4105C7.88646 11.9735 7.58883 11.4167 7.46825 10.8105C7.34767 10.2043 7.40956 9.57594 7.64608 9.00492C7.8826 8.4339 8.28314 7.94584 8.79705 7.60246C9.31095 7.25908 9.91514 7.07581 10.5332 7.07581C11.362 7.07581 12.1569 7.40505 12.7429 7.9911C13.329 8.57715 13.6582 9.372 13.6582 10.2008ZM19.9082 5.20081V15.2008C19.9082 15.3666 19.8424 15.5255 19.7251 15.6427C19.6079 15.76 19.449 15.8258 19.2832 15.8258H1.7832C1.61744 15.8258 1.45847 15.76 1.34126 15.6427C1.22405 15.5255 1.1582 15.3666 1.1582 15.2008V5.20081C1.1582 5.03505 1.22405 4.87607 1.34126 4.75886C1.45847 4.64165 1.61744 4.57581 1.7832 4.57581H19.2832C19.449 4.57581 19.6079 4.64165 19.7251 4.75886C19.8424 4.87607 19.9082 5.03505 19.9082 5.20081ZM18.6582 8.8219C17.9485 8.61206 17.3026 8.228 16.7793 7.7047C16.256 7.1814 15.8719 6.53549 15.6621 5.82581H5.4043C5.19446 6.53549 4.8104 7.1814 4.2871 7.7047C3.7638 8.228 3.11789 8.61206 2.4082 8.8219V11.5797C3.11789 11.7896 3.7638 12.1736 4.2871 12.6969C4.8104 13.2202 5.19446 13.8661 5.4043 14.5758H15.6621C15.8719 13.8661 16.256 13.2202 16.7793 12.6969C17.3026 12.1736 17.9485 11.7896 18.6582 11.5797V8.8219Z" fill="#202B40"/>
</svg>
