<svg width="85" height="59" viewBox="0 0 85 59" fill="none" xmlns="http://www.w3.org/2000/svg">
<path d="M10.8192 18.6241C10.8188 15.5422 11.5845 12.5085 13.0474 9.7959C14.5103 7.08331 16.6246 4.77688 19.2 3.08407C21.7754 1.39126 24.7311 0.365151 27.8015 0.0980452C30.8718 -0.16906 33.9604 0.331209 36.7894 1.55386C39.6184 2.77651 42.0992 4.68319 44.0085 7.10242C45.9179 9.52165 47.1959 12.3775 47.7278 15.4132C48.2596 18.4489 48.0285 21.5692 47.0553 24.4934C46.0821 27.4177 44.3972 30.0541 42.1523 32.1657C46.3848 34.2205 50.0597 37.2653 52.8654 41.0421C55.6712 44.8189 57.5252 49.2164 58.2705 53.8619C58.3524 54.3789 58.3318 54.9069 58.2097 55.4159C58.0876 55.9249 57.8664 56.4048 57.5589 56.8283C57.2513 57.2518 56.8633 57.6106 56.4171 57.8842C55.9708 58.1577 55.4751 58.3407 54.9581 58.4227C54.4412 58.5047 53.9131 58.484 53.4041 58.3619C52.8952 58.2398 52.4152 58.0187 51.9917 57.7111C51.5682 57.4035 51.2094 57.0155 50.9359 56.5693C50.6623 56.1231 50.4793 55.6273 50.3973 55.1104C49.6005 50.1183 47.0501 45.5737 43.204 42.2929C39.358 39.012 34.4683 37.2098 29.413 37.2098C24.3577 37.2098 19.4679 39.012 15.6219 42.2929C11.7758 45.5737 9.2254 50.1183 8.42859 55.1104C8.34626 55.6273 8.16292 56.123 7.88904 56.5691C7.61515 57.0152 7.25608 57.403 6.83233 57.7103C6.40857 58.0177 5.92843 58.2385 5.41932 58.3603C4.91021 58.4821 4.3821 58.5024 3.86515 58.4201C3.34819 58.3377 2.85251 58.1544 2.40641 57.8805C1.96031 57.6066 1.57252 57.2476 1.26518 56.8238C0.957852 56.4 0.736993 55.9199 0.615218 55.4108C0.493444 54.9017 0.473138 54.3736 0.55546 53.8566C1.298 49.2115 3.15112 44.8143 5.95729 41.0388C8.76346 37.2633 12.4397 34.2212 16.6736 32.171C14.8248 30.4321 13.3517 28.3331 12.3448 26.0032C11.338 23.6734 10.8188 21.1622 10.8192 18.6241ZM58.6317 10.6554C61.7183 10.6575 64.738 11.5556 67.3241 13.2407C69.9102 14.9257 71.9515 17.3253 73.2003 20.148C74.4491 22.9707 74.8517 26.0953 74.3591 29.1423C73.8665 32.1894 72.5 35.028 70.4255 37.3135C73.6609 38.9163 76.5356 41.1619 78.8739 43.9131C81.2122 46.6643 82.9651 49.8633 84.0255 53.3147C84.236 53.9845 84.2657 54.698 84.1114 55.3829C83.957 56.0678 83.6242 56.6997 83.1468 57.2144C82.6693 57.7291 82.0641 58.1083 81.3927 58.3135C80.7213 58.5188 80.0075 58.5427 79.3239 58.3829C78.6404 58.2248 78.0107 57.889 77.4986 57.4095C76.9865 56.9301 76.61 56.3239 76.4073 55.6522C75.4538 52.5729 73.7183 49.7933 71.3701 47.5847C69.0219 45.3762 66.1412 43.8141 63.0092 43.051C62.1392 42.841 61.3653 42.3442 60.8121 41.6407C60.2589 40.9371 59.9587 40.0678 59.9598 39.1729V37.3029C59.9594 36.5611 60.166 35.8339 60.5564 35.2031C60.9469 34.5724 61.5057 34.0632 62.1698 33.7329C63.7804 32.9347 65.0738 31.6154 65.8399 29.9894C66.6061 28.3634 66.8 26.5261 66.3901 24.7759C65.9803 23.0258 64.9908 21.4656 63.5823 20.3488C62.1739 19.232 60.4292 18.6242 58.6317 18.6241C57.575 18.6241 56.5616 18.2043 55.8143 17.4571C55.0671 16.7099 54.6473 15.6965 54.6473 14.6397C54.6473 13.583 55.0671 12.5696 55.8143 11.8224C56.5616 11.0752 57.575 10.6554 58.6317 10.6554ZM29.413 7.99912C27.998 7.96712 26.591 8.21813 25.2744 8.73741C23.9578 9.25668 22.7582 10.0338 21.7461 11.023C20.734 12.0123 19.9297 13.1938 19.3804 14.4981C18.8312 15.8025 18.5481 17.2035 18.5478 18.6187C18.5474 20.034 18.8298 21.4351 19.3784 22.7398C19.927 24.0444 20.7307 25.2263 21.7423 26.2161C22.7539 27.2058 23.9531 27.9835 25.2694 28.5035C26.5858 29.0234 27.9927 29.2751 29.4076 29.2438C32.1838 29.1824 34.8255 28.0367 36.7674 26.0519C38.7093 24.067 39.7971 21.4008 39.7978 18.6241C39.7984 15.8473 38.7121 13.1806 36.7711 11.1948C34.8302 9.20896 32.189 8.0619 29.413 7.99912Z" fill="#036C53"/>
</svg>
