<svg width="118" height="118" viewBox="0 0 118 118" fill="none" xmlns="http://www.w3.org/2000/svg">
<path d="M102.697 30.6836H70.7051L57.7848 20.9945C56.6773 20.1639 55.3302 19.7148 53.9457 19.7148H33.2285C31.5315 19.7148 29.9041 20.389 28.7041 21.5889C27.5042 22.7888 26.8301 24.4163 26.8301 26.1133V34.3398H18.6035C16.9065 34.3398 15.2791 35.014 14.0791 36.2139C12.8792 37.4138 12.2051 39.0413 12.2051 40.7383V91.9258C12.2051 93.6228 12.8792 95.2502 14.0791 96.4502C15.2791 97.6501 16.9065 98.3242 18.6035 98.3242H88.479C90.0677 98.323 91.591 97.6914 92.7144 96.568C93.8378 95.4446 94.4695 93.9213 94.4707 92.3325V83.6992H103.104C104.693 83.698 106.216 83.0664 107.339 81.943C108.463 80.8196 109.094 79.2963 109.096 77.7075V37.082C109.096 35.3851 108.422 33.7576 107.222 32.5577C106.022 31.3577 104.394 30.6836 102.697 30.6836ZM88.9863 92.3325C88.9863 92.4671 88.9329 92.5961 88.8377 92.6913C88.7426 92.7864 88.6136 92.8398 88.479 92.8398H18.6035C18.3611 92.8398 18.1286 92.7435 17.9572 92.5721C17.7858 92.4007 17.6895 92.1682 17.6895 91.9258V40.7383C17.6895 40.4959 17.7858 40.2634 17.9572 40.0919C18.1286 39.9205 18.3611 39.8242 18.6035 39.8242H39.3207C39.5185 39.8242 39.711 39.8884 39.8692 40.007L53.5207 50.2445C53.9954 50.6005 54.5727 50.793 55.166 50.793H88.0723C88.3147 50.793 88.5472 50.8893 88.7186 51.0607C88.89 51.2321 88.9863 51.4646 88.9863 51.707V92.3325ZM103.611 77.7075C103.611 77.7742 103.598 77.8401 103.573 77.9017C103.547 77.9632 103.51 78.0191 103.463 78.0663C103.416 78.1134 103.36 78.1507 103.298 78.1762C103.237 78.2017 103.171 78.2148 103.104 78.2148H94.4707V51.707C94.4707 50.0101 93.7966 48.3826 92.5966 47.1827C91.3967 45.9827 89.7692 45.3086 88.0723 45.3086H56.0801L43.1598 35.6195C42.0523 34.7889 40.7052 34.3398 39.3207 34.3398H32.3145V26.1133C32.3145 25.8709 32.4108 25.6384 32.5822 25.4669C32.7536 25.2955 32.9861 25.1992 33.2285 25.1992H53.9457C54.1435 25.1992 54.336 25.2634 54.4942 25.382L68.1457 35.6195C68.6204 35.9755 69.1977 36.168 69.791 36.168H102.697C102.94 36.168 103.172 36.2643 103.344 36.4357C103.515 36.6071 103.611 36.8396 103.611 37.082V77.7075Z" fill="black"/>
</svg>
