<svg width="30" height="31" viewBox="0 0 30 31" fill="none" xmlns="http://www.w3.org/2000/svg">
<path d="M11.4399 9.00653C11.4043 8.00028 11.433 6.93466 11.7874 6.10216C11.9743 5.66466 12.2437 5.31091 12.6337 5.06028C13.0255 4.80903 13.588 4.63153 14.4105 4.63153C15.3324 4.63153 16.1005 4.96653 16.6505 5.31528C16.9237 5.48903 17.1368 5.66216 17.2799 5.79028C17.3467 5.85044 17.4114 5.91298 17.4737 5.97778L17.4799 5.98403V5.98466C17.5344 6.04605 17.6005 6.09611 17.6743 6.13197C17.7482 6.16783 17.8283 6.1888 17.9103 6.19368C17.9922 6.19855 18.0743 6.18724 18.1519 6.16038C18.2295 6.13353 18.301 6.09165 18.3624 6.03716C18.4238 5.98266 18.4739 5.9166 18.5097 5.84276C18.5456 5.76891 18.5666 5.68873 18.5714 5.60678C18.5763 5.52483 18.565 5.44273 18.5381 5.36515C18.5113 5.28757 18.4694 5.21605 18.4149 5.15466L17.9555 5.56091C18.4149 5.15466 18.4137 5.15341 18.4137 5.15341L18.4112 5.15028L18.4049 5.14403C18.3803 5.1162 18.3549 5.0891 18.3287 5.06278C18.2592 4.99298 18.1877 4.92524 18.1143 4.85966C17.8661 4.63888 17.6007 4.43824 17.3205 4.25966C16.6393 3.82903 15.6393 3.38153 14.4105 3.38153C13.4068 3.38153 12.5962 3.59966 11.9587 4.00841C11.3193 4.41903 10.9024 4.98966 10.6374 5.61216C10.1762 6.69528 10.1537 7.98591 10.1887 9.00653H6.87429C6.52867 9.00653 6.24554 9.28778 6.28492 9.63028C6.66929 12.9928 10.1349 15.6572 14.4462 15.8678V20.8815H15.6962V15.8603C16.7365 15.7982 17.7621 15.5834 18.7399 15.2228C18.7462 15.2944 18.7493 15.3688 18.7493 15.4459C18.7493 15.9222 18.3599 16.4922 17.5612 16.9872C17.1516 17.2374 16.7104 17.4316 16.2493 17.5647V18.8559C16.9449 18.695 17.6099 18.4228 18.2187 18.0497C19.1393 17.4815 19.9993 16.5834 19.9993 15.4465C19.9993 15.1903 19.9755 14.9372 19.9224 14.6915C22.0268 13.564 23.4724 11.734 23.7137 9.63091C23.753 9.28841 23.4693 9.00716 23.1243 9.00716L11.4399 9.00653Z" fill="#A3ACAE"/>
<path d="M18.75 25.2566C18.75 25.9847 18.525 26.6241 18.1131 27.1316H20V28.3816H10V27.1316H14.4469V24.6316H15.6969V27.0778C16.1981 26.9959 16.5944 26.8253 16.8794 26.6009C17.27 26.2947 17.5 25.8534 17.5 25.2566C17.5 24.6597 17.27 24.2191 16.8794 23.9122C16.4731 23.5922 15.8406 23.3809 15 23.3809C14.0519 23.3809 13 23.3066 12.1681 22.9372C11.7406 22.7472 11.3462 22.4684 11.06 22.0603C10.7712 21.6478 10.625 21.1472 10.625 20.5691C10.625 19.9909 10.7712 19.4903 11.06 19.0778C11.3462 18.6697 11.7412 18.3909 12.1681 18.2009C12.6431 17.9897 13.1913 17.8747 13.75 17.8153V19.0734C13.3388 19.1253 12.9738 19.2109 12.6756 19.3434C12.4 19.4659 12.2087 19.6172 12.0844 19.7947C11.9631 19.9678 11.875 20.2097 11.875 20.5691C11.875 20.9284 11.9625 21.1703 12.0844 21.3434C12.2087 21.5209 12.4 21.6722 12.6756 21.7947C13.2506 22.0503 14.0731 22.1316 15 22.1316C16.0338 22.1316 16.965 22.3897 17.6519 22.9291C18.355 23.4816 18.75 24.2909 18.75 25.2566Z" fill="#A3ACAE"/>
</svg>
