<svg width="118" height="117" viewBox="0 0 118 117" fill="none" xmlns="http://www.w3.org/2000/svg">
<path fill-rule="evenodd" clip-rule="evenodd" d="M46.3593 20.3604C44.9748 23.6072 44.8627 27.7631 45.0016 31.6875H90.5707C91.9162 31.6875 93.0228 32.7844 92.8692 34.1201C91.9308 42.3223 86.2904 49.4593 78.0834 53.8566C78.2906 54.8145 78.3832 55.8017 78.3832 56.8011C78.3832 61.2349 75.0267 64.7351 71.4387 66.9581C69.0646 68.4124 66.4709 69.4734 63.7582 70.1001V65.0617C65.5564 64.5435 67.2771 63.7869 68.8745 62.8119C71.9896 60.8839 73.5082 58.6609 73.5082 56.8011C73.5082 56.5004 73.4968 56.2112 73.4741 55.9333C69.8251 57.291 65.8203 58.1563 61.601 58.4171V78H56.726V58.4464C39.9121 57.6225 26.3986 47.2339 24.8971 34.1201C24.7436 32.7844 25.8477 31.6875 27.1957 31.6875H40.1242C39.9852 27.7071 40.073 22.6736 41.8743 18.4494C42.9078 16.0241 44.5312 13.7938 47.0247 12.1948C49.511 10.6031 52.6724 9.75 56.5871 9.75C61.3816 9.75 65.2816 11.4904 67.9361 13.1771C69.2694 14.0229 70.3126 14.8712 71.0317 15.5147C71.4252 15.8688 71.8041 16.2388 72.1676 16.6238L72.1919 16.6481L72.1968 16.6579L72.2017 16.6603C72.2017 16.6603 72.2017 16.6652 70.4126 18.252L72.2041 16.6652C72.6192 17.1504 72.8273 17.7792 72.7837 18.4163C72.74 19.0534 72.4481 19.648 71.9707 20.0721C71.4932 20.4962 70.8685 20.716 70.2306 20.6842C69.5928 20.6524 68.993 20.3716 68.5601 19.9022L68.5357 19.8754L68.3943 19.7291C68.1945 19.5282 67.9888 19.3331 67.7776 19.1441C67.0095 18.463 66.1887 17.8435 65.3231 17.2916C63.1781 15.9315 60.1824 14.625 56.5871 14.625C53.3793 14.625 51.188 15.3172 49.6572 16.2971C48.1362 17.2721 47.0857 18.6542 46.3593 20.3604ZM30.3791 36.5625C33.2431 45.7275 44.1924 53.625 58.8832 53.625C73.574 53.625 84.5257 45.7275 87.3873 36.5625H30.3791Z" fill="#4A5455"/>
<path d="M39.3828 102.375V107.25H78.3828V102.375H71.024C72.6328 100.396 73.5078 97.9023 73.5078 95.0626C73.5078 91.2967 71.9673 88.1401 69.2251 85.9854C66.5439 83.8818 62.9169 82.8751 58.8828 82.8751C55.268 82.8751 52.0578 82.5582 49.8178 81.5613C48.7428 81.0836 47.9969 80.4937 47.5119 79.8014C47.039 79.1262 46.6953 78.1829 46.6953 76.7789C46.6953 75.3798 47.0366 74.4389 47.5119 73.7613C47.9969 73.0691 48.7428 72.4792 49.8178 72.0014C50.9804 71.4847 52.4015 71.1483 54.0078 70.9484V66.0393C51.8287 66.2733 49.6934 66.7218 47.8385 67.5457C46.1712 68.2867 44.6332 69.3738 43.5168 70.9655C42.3907 72.5742 41.8203 74.5267 41.8203 76.7814C41.8203 79.0361 42.3907 80.9885 43.5168 82.5972C44.6332 84.1889 46.1737 85.2761 47.8385 86.0171C51.0804 87.4576 55.1851 87.7477 58.8828 87.7477C62.1637 87.7477 64.6256 88.5716 66.2124 89.8196C67.7358 91.0139 68.6328 92.7348 68.6328 95.0602C68.6328 97.3904 67.7358 99.1089 66.2124 100.306C65.0984 101.181 63.5555 101.846 61.6006 102.165V92.6251H56.7256V102.375H39.3828Z" fill="#4A5455"/>
</svg>
