<svg width="52" height="52" viewBox="0 0 52 52" fill="none" xmlns="http://www.w3.org/2000/svg">
<path d="M20.9462 10.7167C17.2302 10.9566 13.6633 12.245 10.6723 14.4278C7.6813 16.6105 5.39304 19.5951 4.08141 23.0242C2.76978 26.4533 2.49036 30.1816 3.2766 33.7629C4.06284 37.3442 5.88142 40.6267 8.51465 43.2175C11.1479 45.8082 14.4842 47.5975 18.1242 48.3711C21.7642 49.1446 25.5537 48.8697 29.039 47.5792C32.5243 46.2888 35.5578 44.0374 37.7763 41.0947C39.9949 38.1519 41.3044 34.6425 41.5483 30.9865H20.9462V10.7167Z" stroke="#036C53" stroke-width="5" stroke-linecap="round" stroke-linejoin="round"/>
<path d="M29.987 3.02808C29.5504 3.02808 29.1241 3.06366 28.6953 3.09162V23.3614H49.2974C49.3258 22.9395 49.362 22.5201 49.362 22.0906C49.362 17.0349 47.3207 12.1863 43.6872 8.61135C40.0537 5.03644 35.1255 3.02808 29.987 3.02808Z" stroke="#036C53" stroke-width="5" stroke-linecap="round" stroke-linejoin="round"/>
</svg>
