<svg width="31" height="31" viewBox="0 0 31 31" fill="none" xmlns="http://www.w3.org/2000/svg">
<path fill-rule="evenodd" clip-rule="evenodd" d="M10.5859 9.13275C10.5859 7.80667 11.1127 6.5349 12.0504 5.59722C12.9881 4.65954 14.2599 4.13275 15.5859 4.13275C16.912 4.13275 18.1838 4.65954 19.1215 5.59722C20.0592 6.5349 20.5859 7.80667 20.5859 9.13275C20.5859 10.4588 20.0592 11.7306 19.1215 12.6683C18.1838 13.606 16.912 14.1328 15.5859 14.1328C14.2599 14.1328 12.9881 13.606 12.0504 12.6683C11.1127 11.7306 10.5859 10.4588 10.5859 9.13275ZM10.5859 16.6328C8.92833 16.6328 7.33862 17.2912 6.16652 18.4633C4.99442 19.6354 4.33594 21.2251 4.33594 22.8828C4.33594 23.8773 4.73103 24.8311 5.43429 25.5344C6.13755 26.2377 7.09138 26.6328 8.08594 26.6328H23.0859C24.0805 26.6328 25.0343 26.2377 25.7376 25.5344C26.4408 24.8311 26.8359 23.8773 26.8359 22.8828C26.8359 21.2251 26.1775 19.6354 25.0054 18.4633C23.8333 17.2912 22.2435 16.6328 20.5859 16.6328H10.5859Z" fill="#A3ACAE"/>
</svg>
