<svg width="28" height="35" viewBox="0 0 28 35" fill="none" xmlns="http://www.w3.org/2000/svg">
<path d="M7.16667 2.38273C7.16667 1.9407 7.34226 1.51678 7.65482 1.20422C7.96738 0.891659 8.39131 0.716064 8.83333 0.716064C9.27536 0.716064 9.69928 0.891659 10.0118 1.20422C10.3244 1.51678 10.5 1.9407 10.5 2.38273V4.0494H17.1667V2.38273C17.1667 1.9407 17.3423 1.51678 17.6548 1.20422C17.9674 0.891659 18.3913 0.716064 18.8333 0.716064C19.2754 0.716064 19.6993 0.891659 20.0118 1.20422C20.3244 1.51678 20.5 1.9407 20.5 2.38273V4.0494C22.2681 4.0494 23.9638 4.75178 25.214 6.00202C26.4643 7.25226 27.1667 8.94795 27.1667 10.7161V20.7161H18.8333C17.5072 20.7161 16.2355 21.2428 15.2978 22.1805C14.3601 23.1182 13.8333 24.39 13.8333 25.7161V34.0494H7.16667C5.39856 34.0494 3.70286 33.347 2.45262 32.0968C1.20238 30.8465 0.5 29.1508 0.5 27.3827V10.7161C0.5 8.94795 1.20238 7.25226 2.45262 6.00202C3.70286 4.75178 5.39856 4.0494 7.16667 4.0494V2.38273ZM7.16667 12.3827C7.16667 12.8248 7.34226 13.2487 7.65482 13.5612C7.96738 13.8738 8.39131 14.0494 8.83333 14.0494H18.8333C19.2754 14.0494 19.6993 13.8738 20.0118 13.5612C20.3244 13.2487 20.5 12.8248 20.5 12.3827C20.5 11.9407 20.3244 11.5168 20.0118 11.2042C19.6993 10.8917 19.2754 10.7161 18.8333 10.7161H8.83333C8.39131 10.7161 7.96738 10.8917 7.65482 11.2042C7.34226 11.5168 7.16667 11.9407 7.16667 12.3827ZM7.16667 19.0494C7.16667 19.4914 7.34226 19.9153 7.65482 20.2279C7.96738 20.5405 8.39131 20.7161 8.83333 20.7161H12.1667C12.6087 20.7161 13.0326 20.5405 13.3452 20.2279C13.6577 19.9153 13.8333 19.4914 13.8333 19.0494C13.8333 18.6074 13.6577 18.1834 13.3452 17.8709C13.0326 17.5583 12.6087 17.3827 12.1667 17.3827H8.83333C8.39131 17.3827 7.96738 17.5583 7.65482 17.8709C7.34226 18.1834 7.16667 18.6074 7.16667 19.0494ZM8.83333 27.3827C9.27536 27.3827 9.69928 27.2071 10.0118 26.8946C10.3244 26.582 10.5 26.1581 10.5 25.7161C10.5 25.274 10.3244 24.8501 10.0118 24.5376C9.69928 24.225 9.27536 24.0494 8.83333 24.0494C8.39131 24.0494 7.96738 24.225 7.65482 24.5376C7.34226 24.8501 7.16667 25.274 7.16667 25.7161C7.16667 26.1581 7.34226 26.582 7.65482 26.8946C7.96738 27.2071 8.39131 27.3827 8.83333 27.3827ZM17.1667 25.7161C17.1667 25.274 17.3423 24.8501 17.6548 24.5376C17.9674 24.225 18.3913 24.0494 18.8333 24.0494H27.1667L17.1667 34.0494V25.7161Z" fill="#A3ACAE"/>
</svg>
