<svg width="117" height="117" viewBox="0 0 117 117" fill="none" xmlns="http://www.w3.org/2000/svg">
<path d="M41.8909 15.6829H22.9028C20.385 15.6829 17.9702 16.6827 16.1894 18.4626C14.4086 20.2425 13.4075 22.6567 13.4062 25.1745V91.6354C13.4062 96.876 17.6572 101.127 22.9028 101.127H41.8909C44.4078 101.126 46.8213 100.125 48.601 98.3455C50.3808 96.5658 51.3812 94.1523 51.3825 91.6354V25.1745C51.3812 22.6575 50.3808 20.2441 48.601 18.4643C46.8213 16.6846 44.4078 15.6842 41.8909 15.6829Z" stroke="#4A5455" stroke-width="5" stroke-linecap="round" stroke-linejoin="round"/>
<path d="M51.3821 38.6587L66.5726 95.6231C67.2292 98.0521 68.8229 100.121 71.0037 101.376C73.1846 102.631 75.7744 102.969 78.2044 102.316L96.5734 97.5682C99.0031 96.9128 101.073 95.3194 102.328 93.1381C103.583 90.9569 103.921 88.3665 103.267 85.9365L86.0824 21.3768C85.427 18.9471 83.8335 16.8771 81.6523 15.6219C79.4711 14.3668 76.8807 14.0292 74.4507 14.6835L56.1304 19.5731C54.1511 20.1142 52.4059 21.2793 51.1433 22.8978M32.394 84.7226C34.3379 84.7226 36.2022 83.9504 37.5768 82.5758C38.9514 81.2013 39.7236 79.337 39.7236 77.393C39.7236 75.4491 38.9514 73.5848 37.5768 72.2102C36.2022 70.8357 34.3379 70.0635 32.394 70.0635C30.4501 70.0635 28.5858 70.8357 27.2112 72.2102C25.8367 73.5848 25.0645 75.4491 25.0645 77.393C25.0645 79.337 25.8367 81.2013 27.2112 82.5758C28.5858 83.9504 30.4501 84.7226 32.394 84.7226Z" stroke="#4A5455" stroke-width="5" stroke-linecap="round" stroke-linejoin="round"/>
<path d="M81.2422 84.0499C83.1842 84.0499 85.0466 83.2784 86.4198 81.9053C87.793 80.5321 88.5644 78.6696 88.5644 76.7276C88.5644 74.7857 87.793 72.9232 86.4198 71.55C85.0466 70.1768 83.1842 69.4054 81.2422 69.4054C79.3002 69.4054 77.4377 70.1768 76.0646 71.55C74.6914 72.9232 73.9199 74.7857 73.9199 76.7276C73.9199 78.6696 74.6914 80.5321 76.0646 81.9053C77.4377 83.2784 79.3002 84.0499 81.2422 84.0499Z" stroke="#4A5455" stroke-width="5" stroke-linecap="round" stroke-linejoin="round"/>
</svg>
