<svg width="118" height="117" viewBox="0 0 118 117" fill="none" xmlns="http://www.w3.org/2000/svg">
<path d="M44.2578 97.5H73.5078M58.8828 68.25V97.5M44.2578 43.875H73.5078M19.8828 29.25C19.8828 26.6641 20.91 24.1842 22.7385 22.3557C24.567 20.5272 27.047 19.5 29.6328 19.5H88.1328C90.7187 19.5 93.1986 20.5272 95.0271 22.3557C96.8556 24.1842 97.8828 26.6641 97.8828 29.25V58.5C97.8828 61.0859 96.8556 63.5658 95.0271 65.3943C93.1986 67.2228 90.7187 68.25 88.1328 68.25H29.6328C27.047 68.25 24.567 67.2228 22.7385 65.3943C20.91 63.5658 19.8828 61.0859 19.8828 58.5V29.25Z" stroke="#4A5455" stroke-width="5" stroke-linecap="round" stroke-linejoin="round"/>
</svg>
