<svg width="31" height="31" viewBox="0 0 31 31" fill="none" xmlns="http://www.w3.org/2000/svg">
<path d="M24.1641 5.38153H22.9141V4.13153C22.9141 3.38153 22.4141 2.88153 21.6641 2.88153C20.9141 2.88153 20.4141 3.38153 20.4141 4.13153V5.38153H10.4141V4.13153C10.4141 3.38153 9.91406 2.88153 9.16406 2.88153C8.41406 2.88153 7.91406 3.38153 7.91406 4.13153V5.38153H6.66406C4.53906 5.38153 2.91406 7.00653 2.91406 9.13153V10.3815H27.9141V9.13153C27.9141 7.00653 26.2891 5.38153 24.1641 5.38153ZM2.91406 24.1315C2.91406 26.2565 4.53906 27.8815 6.66406 27.8815H24.1641C26.2891 27.8815 27.9141 26.2565 27.9141 24.1315V12.8815H2.91406V24.1315ZM21.6641 15.3815C22.4141 15.3815 22.9141 15.8815 22.9141 16.6315C22.9141 17.3815 22.4141 17.8815 21.6641 17.8815C20.9141 17.8815 20.4141 17.3815 20.4141 16.6315C20.4141 15.8815 20.9141 15.3815 21.6641 15.3815ZM21.6641 20.3815C22.4141 20.3815 22.9141 20.8815 22.9141 21.6315C22.9141 22.3815 22.4141 22.8815 21.6641 22.8815C20.9141 22.8815 20.4141 22.3815 20.4141 21.6315C20.4141 20.8815 20.9141 20.3815 21.6641 20.3815ZM15.4141 15.3815C16.1641 15.3815 16.6641 15.8815 16.6641 16.6315C16.6641 17.3815 16.1641 17.8815 15.4141 17.8815C14.6641 17.8815 14.1641 17.3815 14.1641 16.6315C14.1641 15.8815 14.6641 15.3815 15.4141 15.3815ZM15.4141 20.3815C16.1641 20.3815 16.6641 20.8815 16.6641 21.6315C16.6641 22.3815 16.1641 22.8815 15.4141 22.8815C14.6641 22.8815 14.1641 22.3815 14.1641 21.6315C14.1641 20.8815 14.6641 20.3815 15.4141 20.3815ZM9.16406 15.3815C9.91406 15.3815 10.4141 15.8815 10.4141 16.6315C10.4141 17.3815 9.91406 17.8815 9.16406 17.8815C8.41406 17.8815 7.91406 17.3815 7.91406 16.6315C7.91406 15.8815 8.41406 15.3815 9.16406 15.3815ZM9.16406 20.3815C9.91406 20.3815 10.4141 20.8815 10.4141 21.6315C10.4141 22.3815 9.91406 22.8815 9.16406 22.8815C8.41406 22.8815 7.91406 22.3815 7.91406 21.6315C7.91406 20.8815 8.41406 20.3815 9.16406 20.3815Z" fill="#A3ACAE"/>
</svg>
