<svg width="62" height="62" viewBox="0 0 62 62" fill="none" xmlns="http://www.w3.org/2000/svg">
<path d="M11.4986 30.1585L11.4991 30.1581C11.4989 30.1582 11.4988 30.1583 11.4986 30.1585ZM11.4986 30.1585L11.4979 30.1592L11.9292 30.5905L11.93 30.5913L11.9303 30.5917L11.9306 30.5919L11.9308 30.5921L11.9312 30.5925L11.932 30.5933L13.6165 32.2778L12.3637 31.0241L11.9312 30.5913L11.4986 30.1585ZM31.3531 46.3605H30.0454H28.3531H7.23768C6.19921 46.3605 5.25159 45.9674 4.53566 45.3221H4.89153H56.5069H56.8628C56.1469 45.9674 55.1992 46.3605 54.1608 46.3605H33.0454H31.3531ZM4.89153 8.82209H4.53412C5.27402 8.15525 6.2367 7.78362 7.23768 7.78362H28.3531H30.0454H31.3531H33.0454H54.1608C55.1617 7.78362 56.1244 8.15525 56.8643 8.82209H56.5069H4.89153Z" fill="#036C53" stroke="#036C53" stroke-width="6"/>
</svg>
