<svg width="21" height="21" viewBox="0 0 21 21" fill="none" xmlns="http://www.w3.org/2000/svg">
<g clip-path="url(#clip0_1273_65)">
<path d="M10.4082 20.217C7.75604 20.217 5.2125 19.1635 3.33714 17.2881C1.46177 15.4127 0.408203 12.8692 0.408203 10.217C0.408203 7.56488 1.46177 5.02134 3.33714 3.14597C5.2125 1.27061 7.75604 0.217041 10.4082 0.217041C13.0604 0.217041 15.6039 1.27061 17.4793 3.14597C19.3546 5.02134 20.4082 7.56488 20.4082 10.217C20.4082 12.8692 19.3546 15.4127 17.4793 17.2881C15.6039 19.1635 13.0604 20.217 10.4082 20.217ZM8.4082 15.217L17.4082 6.71704L15.9082 5.21704L8.4082 12.217L4.9082 8.71704L3.4082 10.217L8.4082 15.217Z" fill="#0F7A26"/>
</g>
<defs>
<clipPath id="clip0_1273_65">
<rect width="20" height="20" fill="white" transform="translate(0.408203 0.217041)"/>
</clipPath>
</defs>
</svg>
