<svg width="118" height="118" viewBox="0 0 118 118" fill="none" xmlns="http://www.w3.org/2000/svg">
<path d="M39.2695 64.3496V22.9121C39.2695 20.9727 40.04 19.1128 41.4113 17.7414C42.7827 16.37 44.6426 15.5996 46.582 15.5996C48.5214 15.5996 50.3814 16.37 51.7528 17.7414C53.1241 19.1128 53.8945 20.9727 53.8945 22.9121V59.4746M53.8945 57.0371V47.2871C53.8945 45.3477 54.665 43.4877 56.0363 42.1164C57.4077 40.745 59.2676 39.9746 61.207 39.9746C63.1464 39.9746 65.0064 40.745 66.3778 42.1164C67.7491 43.4877 68.5195 45.3477 68.5195 47.2871V59.4746M68.5195 52.1621C68.5195 50.2227 69.29 48.3627 70.6613 46.9914C72.0327 45.62 73.8926 44.8496 75.832 44.8496C77.7714 44.8496 79.6314 45.62 81.0027 46.9914C82.3741 48.3627 83.1445 50.2227 83.1445 52.1621V59.4746" stroke="black" stroke-width="5" stroke-linecap="round" stroke-linejoin="round"/>
<path d="M83.1445 57.0371C83.1445 55.0977 83.915 53.2377 85.2863 51.8664C86.6577 50.495 88.5176 49.7246 90.457 49.7246C92.3964 49.7246 94.2564 50.495 95.6277 51.8664C96.9991 53.2377 97.7695 55.0977 97.7695 57.0371V78.9746C97.7695 86.7322 94.6878 94.172 89.2024 99.6575C83.717 105.143 76.2771 108.225 68.5195 108.225H58.7695H59.7835C54.9394 108.225 50.1709 107.023 45.9063 104.726C41.6416 102.428 38.0143 99.1077 35.35 95.0621L34.3945 93.5996C32.8735 91.2661 27.5338 81.9581 18.3753 65.6756C17.4415 64.0158 17.192 62.0572 17.68 60.2164C18.168 58.3755 19.3549 56.7976 20.9883 55.8184C22.7288 54.777 24.7669 54.3458 26.7801 54.593C28.7932 54.8402 30.6665 55.7518 32.1033 57.1834L39.2695 64.3496M24.6445 15.5996L19.7695 10.7246M19.7695 35.0996H14.8945M68.5195 15.5996L73.3945 10.7246M73.3945 30.2246H78.2695" stroke="black" stroke-width="5" stroke-linecap="round" stroke-linejoin="round"/>
</svg>
