<svg width="118" height="117" viewBox="0 0 118 117" fill="none" xmlns="http://www.w3.org/2000/svg">
<path fill-rule="evenodd" clip-rule="evenodd" d="M20.1328 14.625C18.8399 14.625 17.5999 15.1386 16.6857 16.0529C15.7714 16.9671 15.2578 18.2071 15.2578 19.5V82.875C15.2578 84.1679 15.7714 85.4079 16.6857 86.3222C17.5999 87.2364 18.8399 87.75 20.1328 87.75H56.6953V97.5H39.6328V102.375H78.6328V97.5H61.5703V87.75H98.1328C99.4257 87.75 100.666 87.2364 101.58 86.3222C102.494 85.4079 103.008 84.1679 103.008 82.875V19.5C103.008 18.2071 102.494 16.9671 101.58 16.0529C100.666 15.1386 99.4257 14.625 98.1328 14.625H20.1328ZM95.6953 82.875V24.375H22.5703V82.875H29.8828V76.4887C29.8828 71.5601 35.7499 65.2226 42.6066 62.5316C42.6261 63.5407 42.7211 66.3292 42.8601 67.4359C43.0087 68.6302 43.2135 69.8198 43.4353 70.7972C43.4841 71.0084 43.5344 71.2116 43.5864 71.4066C42.6793 71.9606 41.9781 72.7961 41.59 73.7857C41.2018 74.7752 41.1479 75.8646 41.4365 76.8876C41.725 77.9107 42.3402 78.8113 43.1883 79.4522C44.0363 80.0931 45.0706 80.4391 46.1336 80.4375C47.3715 80.4374 48.563 79.9663 49.4663 79.12C50.3696 78.2736 50.9171 77.1153 50.9977 75.8801C51.0784 74.6448 50.6861 73.4252 49.9005 72.4685C49.1148 71.5119 47.9947 70.89 46.7674 70.7289C46.7079 70.5109 46.6534 70.2914 46.6041 70.0708C46.4091 69.2201 46.2238 68.1428 46.0849 67.0337C45.8557 65.1958 45.7412 63.2726 45.8801 61.4201C46.5074 61.2414 47.133 61.0805 47.757 60.9375C48.3883 60.7937 48.8149 61.8881 49.1269 62.6876C49.2244 62.9314 49.3073 63.1483 49.3828 63.2921C52.5637 63.2921 55.8495 63.3116 59.1328 63.3336C62.4161 63.3531 65.7019 63.375 68.8828 63.375C68.9754 63.1971 69.0729 62.9436 69.1802 62.6657C69.4971 61.8369 69.8968 60.7986 70.5086 60.9375C71.3813 61.1357 72.2522 61.3706 73.1216 61.6419C73.1216 62.2708 73.1289 62.9111 73.1436 63.5627C73.185 65.9222 73.2264 68.3816 72.6463 70.6875H70.5086C70.2066 70.6882 69.9107 70.7727 69.6538 70.9314C69.3969 71.0902 69.1891 71.3171 69.0534 71.5869L67.4301 74.8361C67.3203 75.0627 67.262 75.3108 67.2594 75.5625V78.8117C67.2594 79.7111 67.9858 80.4375 68.8828 80.4375H72.132V77.1883H70.5086V75.9452L71.5129 73.9367H76.0028L77.007 75.9452V77.1883H75.3836V80.4375H78.6328C78.8463 80.4375 79.0577 80.3954 79.255 80.3137C79.4522 80.232 79.6315 80.1123 79.7824 79.9613C79.9334 79.8103 80.0532 79.6311 80.1349 79.4339C80.2166 79.2366 80.2586 79.0252 80.2586 78.8117V75.5625C80.256 75.3108 80.1978 75.0627 80.088 74.8361L78.4622 71.5845C78.3262 71.3151 78.1182 71.0887 77.8613 70.9304C77.6045 70.7721 77.3087 70.688 77.007 70.6875H75.9759C76.4927 68.1038 76.5268 65.5054 76.5244 62.8826C83.0033 65.6224 88.3828 71.7697 88.3828 76.4887V82.875H95.6953ZM46.1336 77.2127C46.3487 77.2114 46.5614 77.1677 46.7596 77.084C46.9577 77.0002 47.1373 76.8782 47.2882 76.7249C47.439 76.5716 47.5581 76.3899 47.6385 76.1905C47.719 75.991 47.7593 75.7776 47.757 75.5625C47.7593 75.3474 47.719 75.134 47.6385 74.9345C47.5581 74.7351 47.439 74.5534 47.2882 74.4001C47.1373 74.2468 46.9577 74.1248 46.7596 74.041C46.5614 73.9573 46.3487 73.9136 46.1336 73.9123C45.9183 73.9133 45.7054 73.9568 45.5069 74.0403C45.3085 74.1239 45.1286 74.2459 44.9775 74.3993C44.8264 74.5526 44.7071 74.7343 44.6265 74.934C44.5459 75.1336 44.5056 75.3472 44.5078 75.5625C44.5078 76.4961 45.2586 77.2127 46.1336 77.2127ZM59.1328 21.9375C59.7793 21.9375 60.3993 21.6807 60.8564 21.2236C61.3135 20.7665 61.5703 20.1465 61.5703 19.5C61.5703 18.8535 61.3135 18.2335 60.8564 17.7764C60.3993 17.3193 59.7793 17.0625 59.1328 17.0625C58.4863 17.0625 57.8664 17.3193 57.4092 17.7764C56.9521 18.2335 56.6953 18.8535 56.6953 19.5C56.6953 20.1465 56.9521 20.7665 57.4092 21.2236C57.8664 21.6807 58.4863 21.9375 59.1328 21.9375Z" fill="#4A5455"/>
<path d="M73.7578 43.875C73.7578 47.7538 72.217 51.4737 69.4743 54.2164C66.7315 56.9592 63.0116 58.5 59.1328 58.5C55.254 58.5 51.5341 56.9592 48.7914 54.2164C46.0487 51.4737 44.5078 47.7538 44.5078 43.875C44.5078 39.9962 46.0487 36.2763 48.7914 33.5336C51.5341 30.7908 55.254 29.25 59.1328 29.25C63.0116 29.25 66.7315 30.7908 69.4743 33.5336C72.217 36.2763 73.7578 39.9962 73.7578 43.875Z" fill="#4A5455"/>
</svg>
