<svg width="118" height="117" viewBox="0 0 118 117" fill="none" xmlns="http://www.w3.org/2000/svg">
<path d="M59.3242 68.25C60.2884 68.25 61.2309 67.9641 62.0326 67.4284C62.8343 66.8927 63.4592 66.1314 63.8281 65.2406C64.1971 64.3498 64.2937 63.3696 64.1055 62.4239C63.9174 61.4783 63.4531 60.6096 62.7714 59.9279C62.0896 59.2461 61.2209 58.7818 60.2753 58.5937C59.3296 58.4056 58.3494 58.5021 57.4586 58.8711C56.5678 59.2401 55.8065 59.8649 55.2708 60.6666C54.7351 61.4683 54.4492 62.4108 54.4492 63.375C54.4492 64.6679 54.9628 65.9079 55.8771 66.8221C56.7913 67.7364 58.0313 68.25 59.3242 68.25ZM83.6992 68.25C84.6634 68.25 85.6059 67.9641 86.4076 67.4284C87.2093 66.8927 87.8342 66.1314 88.2031 65.2406C88.5721 64.3498 88.6686 63.3696 88.4805 62.4239C88.2924 61.4783 87.8282 60.6096 87.1464 59.9279C86.4646 59.2461 85.5959 58.7818 84.6503 58.5937C83.7046 58.4056 82.7244 58.5021 81.8336 58.8711C80.9429 59.2401 80.1815 59.8649 79.6458 60.6666C79.1101 61.4683 78.8242 62.4108 78.8242 63.375C78.8242 64.6679 79.3378 65.9079 80.2521 66.8221C81.1663 67.7364 82.4063 68.25 83.6992 68.25ZM59.3242 87.75C60.2884 87.75 61.2309 87.4641 62.0326 86.9284C62.8343 86.3927 63.4592 85.6314 63.8281 84.7406C64.1971 83.8498 64.2937 82.8696 64.1055 81.9239C63.9174 80.9783 63.4531 80.1096 62.7714 79.4278C62.0896 78.7461 61.2209 78.2818 60.2753 78.0937C59.3296 77.9056 58.3494 78.0021 57.4586 78.3711C56.5678 78.7401 55.8065 79.3649 55.2708 80.1666C54.7351 80.9683 54.4492 81.9108 54.4492 82.875C54.4492 84.1679 54.9628 85.4079 55.8771 86.3222C56.7913 87.2364 58.0313 87.75 59.3242 87.75ZM83.6992 87.75C84.6634 87.75 85.6059 87.4641 86.4076 86.9284C87.2093 86.3927 87.8342 85.6314 88.2031 84.7406C88.5721 83.8498 88.6686 82.8696 88.4805 81.9239C88.2924 80.9783 87.8282 80.1096 87.1464 79.4278C86.4646 78.7461 85.5959 78.2818 84.6503 78.0937C83.7046 77.9056 82.7244 78.0021 81.8336 78.3711C80.9429 78.7401 80.1815 79.3649 79.6458 80.1666C79.1101 80.9683 78.8242 81.9108 78.8242 82.875C78.8242 84.1679 79.3378 85.4079 80.2521 86.3222C81.1663 87.2364 82.4063 87.75 83.6992 87.75ZM34.9492 68.25C35.9134 68.25 36.8559 67.9641 37.6576 67.4284C38.4593 66.8927 39.0842 66.1314 39.4531 65.2406C39.8221 64.3498 39.9186 63.3696 39.7305 62.4239C39.5424 61.4783 39.0781 60.6096 38.3964 59.9279C37.7146 59.2461 36.8459 58.7818 35.9003 58.5937C34.9546 58.4056 33.9744 58.5021 33.0836 58.8711C32.1928 59.2401 31.4315 59.8649 30.8958 60.6666C30.3601 61.4683 30.0742 62.4108 30.0742 63.375C30.0742 64.6679 30.5878 65.9079 31.5021 66.8221C32.4163 67.7364 33.6563 68.25 34.9492 68.25ZM93.4492 19.5H88.5742V14.625C88.5742 13.3321 88.0606 12.0921 87.1464 11.1779C86.2321 10.2636 84.9921 9.75 83.6992 9.75C82.4063 9.75 81.1663 10.2636 80.2521 11.1779C79.3378 12.0921 78.8242 13.3321 78.8242 14.625V19.5H39.8242V14.625C39.8242 13.3321 39.3106 12.0921 38.3964 11.1779C37.4821 10.2636 36.2421 9.75 34.9492 9.75C33.6563 9.75 32.4163 10.2636 31.5021 11.1779C30.5878 12.0921 30.0742 13.3321 30.0742 14.625V19.5H25.1992C21.3204 19.5 17.6005 21.0408 14.8578 23.7836C12.1151 26.5263 10.5742 30.2462 10.5742 34.125V92.625C10.5742 96.5038 12.1151 100.224 14.8578 102.966C17.6005 105.709 21.3204 107.25 25.1992 107.25H93.4492C97.328 107.25 101.048 105.709 103.791 102.966C106.533 100.224 108.074 96.5038 108.074 92.625V34.125C108.074 30.2462 106.533 26.5263 103.791 23.7836C101.048 21.0408 97.328 19.5 93.4492 19.5ZM98.3242 92.625C98.3242 93.9179 97.8106 95.1579 96.8964 96.0722C95.9821 96.9864 94.7421 97.5 93.4492 97.5H25.1992C23.9063 97.5 22.6663 96.9864 21.7521 96.0722C20.8378 95.1579 20.3242 93.9179 20.3242 92.625V48.75H98.3242V92.625ZM98.3242 39H20.3242V34.125C20.3242 32.8321 20.8378 31.5921 21.7521 30.6779C22.6663 29.7636 23.9063 29.25 25.1992 29.25H93.4492C94.7421 29.25 95.9821 29.7636 96.8964 30.6779C97.8106 31.5921 98.3242 32.8321 98.3242 34.125V39ZM34.9492 87.75C35.9134 87.75 36.8559 87.4641 37.6576 86.9284C38.4593 86.3927 39.0842 85.6314 39.4531 84.7406C39.8221 83.8498 39.9186 82.8696 39.7305 81.9239C39.5424 80.9783 39.0781 80.1096 38.3964 79.4278C37.7146 78.7461 36.8459 78.2818 35.9003 78.0937C34.9546 77.9056 33.9744 78.0021 33.0836 78.3711C32.1928 78.7401 31.4315 79.3649 30.8958 80.1666C30.3601 80.9683 30.0742 81.9108 30.0742 82.875C30.0742 84.1679 30.5878 85.4079 31.5021 86.3222C32.4163 87.2364 33.6563 87.75 34.9492 87.75Z" fill="black"/>
</svg>
