<svg width="189" height="189" viewBox="0 0 189 189" fill="none" xmlns="http://www.w3.org/2000/svg">
<path d="M100.521 159.145V123.895H124.021L94.6465 88.645L65.2715 123.895H88.7715V159.145H59.3965V158.851C58.4095 158.91 57.4695 159.145 56.459 159.145C44.7729 159.145 33.5654 154.503 25.3021 146.239C17.0388 137.976 12.3965 126.769 12.3965 115.083C12.3965 92.4755 29.4927 74.0515 51.43 71.5253C53.3534 61.4707 58.7203 52.4007 66.6076 45.8751C74.4949 39.3495 84.4096 35.7763 94.6465 35.77C104.885 35.7757 114.801 39.3484 122.69 45.8739C130.58 52.3993 135.949 61.4697 137.875 71.5253C159.812 74.0515 176.885 92.4755 176.885 115.083C176.885 126.769 172.242 137.976 163.979 146.239C155.716 154.503 144.508 159.145 132.822 159.145C131.835 159.145 130.883 158.91 129.885 158.851V159.145H100.521Z" fill="#A3ACAE"/>
</svg>
