<svg width="14" height="14" viewBox="0 0 14 14" fill="none" xmlns="http://www.w3.org/2000/svg">
<path fill-rule="evenodd" clip-rule="evenodd" d="M0.40625 7.12062C0.40625 5.36409 1.10403 3.6795 2.34608 2.43745C3.58814 1.1954 5.27272 0.49762 7.02925 0.49762C8.78578 0.49762 10.4704 1.1954 11.7124 2.43745C12.9545 3.6795 13.6523 5.36409 13.6523 7.12062C13.6523 8.87715 12.9545 10.5617 11.7124 11.8038C10.4704 13.0458 8.78578 13.7436 7.02925 13.7436C5.27272 13.7436 3.58814 13.0458 2.34608 11.8038C1.10403 10.5617 0.40625 8.87715 0.40625 7.12062ZM7.02925 1.44762C5.92967 1.44766 4.85379 1.76725 3.93251 2.36752C3.01123 2.9678 2.28425 3.82287 1.84002 4.82872C1.39579 5.83458 1.25345 6.94785 1.43031 8.03312C1.60718 9.11839 2.09563 10.1289 2.83625 10.9416C3.28588 10.2374 3.90577 9.6578 4.63863 9.2565C5.3715 8.8552 6.1937 8.6451 7.02925 8.64562C7.86482 8.64501 8.68705 8.85507 9.41993 9.25638C10.1528 9.65769 10.7727 10.2373 11.2222 10.9416C11.9629 10.1289 12.4513 9.11839 12.6282 8.03312C12.8051 6.94785 12.6627 5.83458 12.2185 4.82872C11.7742 3.82287 11.0473 2.9678 10.126 2.36752C9.20471 1.76725 8.12883 1.44766 7.02925 1.44762ZM10.5113 11.5996C10.1574 10.9897 9.64943 10.4836 9.03831 10.1319C8.42719 9.78014 7.73436 9.59521 7.02925 9.59562C6.32414 9.59521 5.63131 9.78014 5.02019 10.1319C4.40907 10.4836 3.90112 10.9897 3.54725 11.5996C4.54202 12.3753 5.76781 12.7956 7.02925 12.7936C8.34125 12.7936 9.54925 12.3476 10.5113 11.5996ZM4.67925 6.12562C4.67925 5.50236 4.92684 4.90463 5.36755 4.46392C5.80826 4.02321 6.40599 3.77562 7.02925 3.77562C7.65251 3.77562 8.25024 4.02321 8.69095 4.46392C9.13166 4.90463 9.37925 5.50236 9.37925 6.12562C9.37925 6.74888 9.13166 7.34661 8.69095 7.78732C8.25024 8.22803 7.65251 8.47562 7.02925 8.47562C6.40599 8.47562 5.80826 8.22803 5.36755 7.78732C4.92684 7.34661 4.67925 6.74888 4.67925 6.12562ZM7.02925 4.72562C6.8454 4.72562 6.66335 4.76183 6.49349 4.83219C6.32364 4.90255 6.1693 5.00567 6.0393 5.13567C5.9093 5.26567 5.80618 5.42001 5.73582 5.58986C5.66546 5.75972 5.62925 5.94177 5.62925 6.12562C5.62925 6.30947 5.66546 6.49152 5.73582 6.66138C5.80618 6.83123 5.9093 6.98557 6.0393 7.11557C6.1693 7.24557 6.32364 7.34869 6.49349 7.41905C6.66335 7.48941 6.8454 7.52562 7.02925 7.52562C7.40055 7.52562 7.75665 7.37812 8.0192 7.11557C8.28175 6.85302 8.42925 6.49692 8.42925 6.12562C8.42925 5.75432 8.28175 5.39822 8.0192 5.13567C7.75665 4.87312 7.40055 4.72562 7.02925 4.72562Z" fill="#202B40"/>
</svg>
