<svg width="17" height="17" viewBox="0 0 17 17" fill="none" xmlns="http://www.w3.org/2000/svg">
<g clip-path="url(#clip0_1021_163)">
<path d="M11.8128 10.2273C11.6228 10.1373 10.7128 9.68734 10.5428 9.61734C10.3728 9.54734 10.2528 9.52734 10.1228 9.71734C9.9928 9.90734 9.6428 10.3173 9.5328 10.4473C9.4228 10.5773 9.3228 10.5873 9.1328 10.4473C8.58708 10.2283 8.08307 9.91714 7.6428 9.52734C7.24426 9.1521 6.90685 8.71685 6.6428 8.23734C6.5328 8.05734 6.6428 7.95734 6.7228 7.85734C6.8028 7.75734 6.9028 7.64734 7.0028 7.53734C7.07593 7.44221 7.13643 7.33801 7.1828 7.22734C7.20761 7.17587 7.22049 7.11948 7.22049 7.06234C7.22049 7.00521 7.20761 6.94881 7.1828 6.89734C7.1828 6.80734 6.7628 5.89734 6.6028 5.52734C6.4428 5.15734 6.3028 5.20734 6.1928 5.20734H5.7928C5.60225 5.21477 5.42244 5.29749 5.2928 5.43734C5.08356 5.63701 4.91782 5.87775 4.80597 6.14448C4.69412 6.4112 4.63857 6.69815 4.6428 6.98734C4.69395 7.69732 4.95501 8.37607 5.3928 8.93734C6.19617 10.1308 7.29527 11.0955 8.5828 11.7373C9.0228 11.9273 9.3628 12.0373 9.6328 12.1273C10.0119 12.2419 10.4127 12.2659 10.8028 12.1973C11.0619 12.1448 11.3074 12.0395 11.5242 11.8882C11.7409 11.7368 11.9243 11.5425 12.0628 11.3173C12.1781 11.0393 12.2161 10.7352 12.1728 10.4373C12.1228 10.3673 12.0028 10.3173 11.8128 10.2273Z" fill="#202B40"/>
<path d="M13.6824 3.41732C12.9908 2.7192 12.1665 2.16664 11.2579 1.79223C10.3494 1.41782 9.37506 1.22914 8.39242 1.23732C7.09072 1.24413 5.81358 1.59235 4.68856 2.2472C3.56355 2.90205 2.63004 3.8406 1.98126 4.96913C1.33248 6.09766 0.991152 7.37666 0.991356 8.67838C0.991559 9.9801 1.33329 11.259 1.98242 12.3873L0.982422 16.2373L4.92242 15.2373C6.01166 15.83 7.23237 16.1395 8.47242 16.1373H8.39242C9.87034 16.1469 11.3176 15.7162 12.5498 14.9C13.7819 14.0837 14.743 12.9191 15.3105 11.5544C15.878 10.1898 16.0263 8.68702 15.7363 7.23779C15.4463 5.78857 14.7313 4.45854 13.6824 3.41732ZM8.39242 14.8573C7.28297 14.8582 6.19415 14.5575 5.24242 13.9873L5.02242 13.8573L2.68242 14.4673L3.30242 12.1873L3.16242 11.9573C2.36378 10.6712 2.06503 9.13657 2.32287 7.64473C2.58071 6.15289 3.37719 4.8076 4.56119 3.8641C5.74519 2.9206 7.23433 2.44453 8.74608 2.52623C10.2578 2.60793 11.687 3.24171 12.7624 4.30732C13.339 4.87921 13.7959 5.56012 14.1067 6.31039C14.4174 7.06065 14.5757 7.86525 14.5724 8.67732C14.5698 10.3155 13.9178 11.8859 12.7594 13.0443C11.601 14.2027 10.0306 14.8547 8.39242 14.8573Z" fill="#202B40"/>
</g>
<defs>
<clipPath id="clip0_1021_163">
<rect width="16" height="16" fill="white" transform="translate(0.392578 0.737305)"/>
</clipPath>
</defs>
</svg>
